<svg xmlns="http://www.w3.org/2000/svg" xmlns:xlink="http://www.w3.org/1999/xlink" version="1.1" width="894.9" height="522.9" viewBox="38.9 10 894.9 522.9"><g><g transform="translate(79,126)"><g><g>
<path d="M91,0H0v64h91V0L91,0z" stroke="#000000" stroke-dasharray="none" fill="#FFFFFF"/>
<rect x="4" y="2.9" width="83" height="58.2" fill="none"/>
<circle fill="none" cx="45.5" cy="0" r="0.1"/>
<circle fill="none" cx="68.1" cy="0" r="0.1"/>
<circle fill="none" cx="91" cy="16.1" r="0.1"/>
<circle fill="none" cx="91" cy="32" r="0.1"/>
<circle fill="none" cx="91" cy="47.9" r="0.1"/>
<circle fill="none" cx="68.1" cy="64" r="0.1"/>
<circle fill="none" cx="45.5" cy="64" r="0.1"/>
<circle fill="none" cx="23" cy="64" r="0.1"/>
<circle fill="none" cx="0" cy="47.9" r="0.1"/>
<circle fill="none" cx="0" cy="32" r="0.1"/>
<circle fill="none" cx="0" cy="16.1" r="0.1"/>
<circle fill="none" cx="23" cy="0" r="0.1"/>
</g></g><rect stroke="none" stroke-width="1" fill="#FFFFFF" x="0" y="0" width="40" height="20" transform="translate(25.4,-70.1)"/><path stroke="#000000" fill="none" d="M45.5,0 C66.7,-21.3 24.2,-28.8 45.4 -50.1"/><text font-family="OpenSansCondensedLight" font-size="14pt" fill="black" transform="translate(25.4,-70.1)" text-anchor="middle"><tspan x="20" y="16.3">202</tspan></text><rect stroke-width="0" fill="none" width="83" height="58.2" transform="translate(4,2.9)"/><text font-family="OpenSansCondensedLight" font-size="14pt" fill="black" transform="translate(4,2.9)" text-anchor="middle"><tspan x="41.5" y="35.4">CPU</tspan></text><path stroke="#000000" fill="none" transform="translate(4,2.9)" d="M 0 0"/></g><g transform="translate(195,126)"><g><g>
<path d="M91,0H0v64h91V0L91,0z" stroke="#000000" stroke-dasharray="none" fill="#FFFFFF"/>
<rect x="4" y="2.9" width="83" height="58.2" fill="none"/>
<circle fill="none" cx="45.5" cy="0" r="0.1"/>
<circle fill="none" cx="68.1" cy="0" r="0.1"/>
<circle fill="none" cx="91" cy="16.1" r="0.1"/>
<circle fill="none" cx="91" cy="32" r="0.1"/>
<circle fill="none" cx="91" cy="47.9" r="0.1"/>
<circle fill="none" cx="68.1" cy="64" r="0.1"/>
<circle fill="none" cx="45.5" cy="64" r="0.1"/>
<circle fill="none" cx="23" cy="64" r="0.1"/>
<circle fill="none" cx="0" cy="47.9" r="0.1"/>
<circle fill="none" cx="0" cy="32" r="0.1"/>
<circle fill="none" cx="0" cy="16.1" r="0.1"/>
<circle fill="none" cx="23" cy="0" r="0.1"/>
</g></g><rect stroke="none" stroke-width="1" fill="#FFFFFF" x="0" y="0" width="40" height="20" transform="translate(25.4,-70.1)"/><path stroke="#000000" fill="none" d="M45.5,0 C66.7,-21.3 24.2,-28.8 45.4 -50.1"/><text font-family="OpenSansCondensedLight" font-size="14pt" fill="black" transform="translate(25.4,-70.1)" text-anchor="middle"><tspan x="20" y="16.3">210</tspan></text><rect stroke-width="0" fill="none" width="83" height="58.2" transform="translate(4,2.9)"/><text font-family="OpenSansCondensedLight" font-size="14pt" fill="black" transform="translate(4,2.9)" text-anchor="middle"><tspan x="41.5" y="35.4">ROM</tspan></text><path stroke="#000000" fill="none" transform="translate(4,2.9)" d="M 0 0"/></g><g transform="translate(660,128)"><g><g>
<path d="M163,0H0v64h163V0L163,0z" stroke="#000000" stroke-dasharray="none" fill="#FFFFFF"/>
<rect x="7.1" y="2.9" width="148.8" height="58.2" fill="none"/>
<circle fill="none" cx="81.5" cy="0" r="0.1"/>
<circle fill="none" cx="121.9" cy="0" r="0.1"/>
<circle fill="none" cx="163" cy="16.1" r="0.1"/>
<circle fill="none" cx="163" cy="32" r="0.1"/>
<circle fill="none" cx="163" cy="47.9" r="0.1"/>
<circle fill="none" cx="121.9" cy="64" r="0.1"/>
<circle fill="none" cx="81.5" cy="64" r="0.1"/>
<circle fill="none" cx="41.1" cy="64" r="0.1"/>
<circle fill="none" cx="0" cy="47.9" r="0.1"/>
<circle fill="none" cx="0" cy="32" r="0.1"/>
<circle fill="none" cx="0" cy="16.1" r="0.1"/>
<circle fill="none" cx="41.1" cy="0" r="0.1"/>
</g></g><rect stroke="none" stroke-width="1" fill="#FFFFFF" x="0" y="0" width="40" height="20" transform="translate(194.9,-24)"/><path stroke="#000000" fill="none" d="M163,16.1 C186.2,22.3 174.4,-10.1 197.6 -4"/><text font-family="OpenSansCondensedLight" font-size="14pt" fill="black" transform="translate(194.9,-24)" text-anchor="middle"><tspan x="20" y="16.3">208</tspan></text><rect stroke-width="0" fill="none" width="148.8" height="58.2" transform="translate(7.1,2.9)"/><text font-family="OpenSansCondensedLight" font-size="14pt" fill="black" transform="translate(7.1,2.9)" text-anchor="middle"><tspan x="74.4" y="24.9">COMMUNICATION</tspan><tspan x="74.4" y="45.9">ADAPTER</tspan></text><path stroke="#000000" fill="none" transform="translate(7.1,2.9)" d="M 0 0"/></g><g transform="translate(322,126)"><g><g>
<path d="M91,0H0v64h91V0L91,0z" stroke="#000000" stroke-dasharray="none" fill="#FFFFFF"/>
<rect x="4" y="2.9" width="83" height="58.2" fill="none"/>
<circle fill="none" cx="45.5" cy="0" r="0.1"/>
<circle fill="none" cx="68.1" cy="0" r="0.1"/>
<circle fill="none" cx="91" cy="16.1" r="0.1"/>
<circle fill="none" cx="91" cy="32" r="0.1"/>
<circle fill="none" cx="91" cy="47.9" r="0.1"/>
<circle fill="none" cx="68.1" cy="64" r="0.1"/>
<circle fill="none" cx="45.5" cy="64" r="0.1"/>
<circle fill="none" cx="23" cy="64" r="0.1"/>
<circle fill="none" cx="0" cy="47.9" r="0.1"/>
<circle fill="none" cx="0" cy="32" r="0.1"/>
<circle fill="none" cx="0" cy="16.1" r="0.1"/>
<circle fill="none" cx="23" cy="0" r="0.1"/>
</g></g><rect stroke="none" stroke-width="1" fill="#FFFFFF" x="0" y="0" width="40" height="20" transform="translate(25.4,-70.1)"/><path stroke="#000000" fill="none" d="M45.5,0 C66.7,-21.3 24.2,-28.8 45.4 -50.1"/><text font-family="OpenSansCondensedLight" font-size="14pt" fill="black" transform="translate(25.4,-70.1)" text-anchor="middle"><tspan x="20" y="16.3">206</tspan></text><rect stroke-width="0" fill="none" width="83" height="58.2" transform="translate(4,2.9)"/><text font-family="OpenSansCondensedLight" font-size="14pt" fill="black" transform="translate(4,2.9)" text-anchor="middle"><tspan x="41.5" y="35.4">RAM</tspan></text><path stroke="#000000" fill="none" transform="translate(4,2.9)" d="M 0 0"/></g><g transform="translate(468,126)"><g><g>
<path d="M133,0H0v64h133V0L133,0z" stroke="#000000" stroke-dasharray="none" fill="#FFFFFF"/>
<rect x="5.8" y="2.9" width="121.4" height="58.2" fill="none"/>
<circle fill="none" cx="66.5" cy="0" r="0.1"/>
<circle fill="none" cx="99.5" cy="0" r="0.1"/>
<circle fill="none" cx="133" cy="16.1" r="0.1"/>
<circle fill="none" cx="133" cy="32" r="0.1"/>
<circle fill="none" cx="133" cy="47.9" r="0.1"/>
<circle fill="none" cx="99.5" cy="64" r="0.1"/>
<circle fill="none" cx="66.5" cy="64" r="0.1"/>
<circle fill="none" cx="33.6" cy="64" r="0.1"/>
<circle fill="none" cx="0" cy="47.9" r="0.1"/>
<circle fill="none" cx="0" cy="32" r="0.1"/>
<circle fill="none" cx="0" cy="16.1" r="0.1"/>
<circle fill="none" cx="33.6" cy="0" r="0.1"/>
</g></g><rect stroke="none" stroke-width="1" fill="#FFFFFF" x="0" y="0" width="40" height="20" transform="translate(164.9,-24)"/><path stroke="#000000" fill="none" d="M133,16.1 C156.2,22.3 144.4,-10.1 167.6 -4"/><text font-family="OpenSansCondensedLight" font-size="14pt" fill="black" transform="translate(164.9,-24)" text-anchor="middle"><tspan x="20" y="16.3">204</tspan></text><rect stroke-width="0" fill="none" width="121.4" height="58.2" transform="translate(5.8,2.9)"/><text font-family="OpenSansCondensedLight" font-size="14pt" fill="black" transform="translate(5.8,2.9)" text-anchor="middle"><tspan x="60.7" y="35.4">I/O ADAPTER</tspan></text><path stroke="#000000" fill="none" transform="translate(5.8,2.9)" d="M 0 0"/></g><g transform="translate(470,72)"><g><g>
<g stroke="#000000" stroke-dasharray="none" fill="#FFFFFF">
    <path d="M135.4,4.7H0v19.2c0,2.6,30.3,4.7,67.9,4.7s67.9,-2.1,67.9,-4.7v-19.2L135.4,4.7L135.4,4.7z"/>
    <path d="M67.9,0C30.3,0,0,2.1,0,4.7s30.3,4.7,67.9,4.7s67.9,-2.1,67.9,-4.7C135.4,2.1,105.1,0,67.9,0L67.9,0z"/>
</g>
<rect x="7.2" y="10.5" width="121" height="13.6" fill="none"/>
<circle fill="none" cx="67.9" cy="0" r="0.1"/>
<circle fill="none" cx="103.5" cy="0.7" r="0.1"/>
<circle fill="none" cx="135.7" cy="4.7" r="0.1"/>
<circle fill="none" cx="135.7" cy="14.3" r="0.1"/>
<circle fill="none" cx="135.7" cy="23.9" r="0.1"/>
<circle fill="none" cx="105.3" cy="27.8" r="0.1"/>
<circle fill="none" cx="67.9" cy="28.6" r="0.1"/>
<circle fill="none" cx="28.5" cy="27.7" r="0.1"/>
<circle fill="none" cx="0" cy="23.9" r="0.1"/>
<circle fill="none" cx="0" cy="14.3" r="0.1"/>
<circle fill="none" cx="0" cy="4.7" r="0.1"/>
<circle fill="none" cx="32" cy="0.7" r="0.1"/>
</g></g><rect stroke="none" stroke-width="1" fill="#FFFFFF" x="0" y="0" width="40" height="20" transform="translate(-18.1,-61.3)"/><path stroke="#000000" fill="none" d="M32,0.7 C39.5,-27.4 0.2,-13.2 7.7 -41.3"/><text font-family="OpenSansCondensedLight" font-size="14pt" fill="black" transform="translate(-18.1,-61.3)" text-anchor="middle"><tspan x="20" y="16.3">212</tspan></text><rect stroke-width="0" fill="none" width="121" height="13.6" transform="translate(7.2,10.5)"/><text font-family="OpenSansCondensedLight" font-size="14pt" fill="black" transform="translate(7.2,10.5)" text-anchor="middle"><tspan x="60.5" y="13.1"> </tspan></text><path stroke="#000000" fill="none" transform="translate(7.2,10.5)" d="M 0 0"/></g><g><path stroke="black" stroke-dasharray="none" d="M 534 101 534 126" fill="none"/><path fill="black" stroke="black" d="" transform="translate(534,101) scale(1,1) rotate(-270)"/><path fill="black" stroke="black" d="" transform="translate(534,126) scale(1,1) rotate(-90)"/><g><g label-idx="0" cursor="move" transform="translate(534, 113.5)"><rect fill="white" rx="3" ry="3" x="0" y="0" width="0" height="0"/><text text-anchor="middle" font-size="14pt" font-family="OpenSansCondensedLight" y="0.8em" display="none" xml:space="preserve" transform="translate(0,0)"/></g></g></g><g transform="translate(678,51)"><g><g>
<path d="M95,0H0v37h95V0L95,0z" stroke="#000000" stroke-dasharray="none" fill="#FFFFFF"/>
<rect x="4.2" y="1.7" width="86.7" height="33.6" fill="none"/>
<circle fill="none" cx="47.5" cy="0" r="0.1"/>
<circle fill="none" cx="71" cy="0" r="0.1"/>
<circle fill="none" cx="95" cy="9.3" r="0.1"/>
<circle fill="none" cx="95" cy="18.5" r="0.1"/>
<circle fill="none" cx="95" cy="27.7" r="0.1"/>
<circle fill="none" cx="71" cy="37" r="0.1"/>
<circle fill="none" cx="47.5" cy="37" r="0.1"/>
<circle fill="none" cx="24" cy="37" r="0.1"/>
<circle fill="none" cx="0" cy="27.7" r="0.1"/>
<circle fill="none" cx="0" cy="18.5" r="0.1"/>
<circle fill="none" cx="0" cy="9.3" r="0.1"/>
<circle fill="none" cx="24" cy="0" r="0.1"/>
</g></g><rect stroke="none" stroke-width="1" fill="#FFFFFF" x="0" y="0" width="40" height="20" transform="translate(134.9,8.4)"/><path stroke="#000000" fill="none" d="M95,18.5 C112,35.4 117.9,1.5 134.9 18.4"/><text font-family="OpenSansCondensedLight" font-size="14pt" fill="black" transform="translate(134.9,8.4)" text-anchor="middle"><tspan x="20" y="16.3">214</tspan></text><rect stroke-width="0" fill="none" width="86.7" height="33.6" transform="translate(4.2,1.7)"/><text font-family="OpenSansCondensedLight" font-size="14pt" fill="black" transform="translate(4.2,1.7)" text-anchor="middle"><tspan x="43.3" y="23.1">NETWORK</tspan></text><path stroke="#000000" fill="none" transform="translate(4.2,1.7)" d="M 0 0"/></g><g transform="translate(720,88)"><g><g>
<g stroke="#000000" stroke-dasharray="none" fill="#FFFFFF">
    <path d="M5.5,16.3l-3.5,3l11,18.7L7.6,21.4l3.9,-2.8L0,0L5.5,16.3z"/>
</g>
<rect x="0.7" y="6.6" fill="none" width="11.2" height="21.6"/>
<circle fill="none" cx="6.5" cy="10.5" r="0.1"/>
<circle fill="none" cx="8.8" cy="14.2" r="0.1"/>
<circle fill="none" cx="11.5" cy="18.6" r="0.1"/>
<circle fill="none" cx="7.6" cy="21.4" r="0.1"/>
<circle fill="none" cx="10.1" cy="29.1" r="0.1"/>
<circle fill="none" cx="10.8" cy="34.2" r="0.1"/>
<circle fill="none" cx="7.4" cy="28.5" r="0.1"/>
<circle fill="none" cx="4.7" cy="23.9" r="0.1"/>
<circle fill="none" cx="2" cy="19.3" r="0.1"/>
<circle fill="none" cx="5.4" cy="16.3" r="0.1"/>
<circle fill="none" cx="3.7" cy="10.9" r="0.1"/>
<circle fill="none" cx="3.9" cy="6.3" r="0.1"/>
</g></g><rect stroke="none" stroke-width="0" fill="#FFFFFF" x="0" y="0" width="0" height="0" transform="translate(7.5,21.3)"/><path stroke="#000000" fill="none" d=""/><text font-family="OpenSansCondensedLight" font-size="14pt" fill="black" transform="translate(7.5,21.3)"/><rect stroke-width="0" fill="none" width="39" transform="translate(-13,48)"/><text font-family="OpenSansCondensedLight" font-size="14pt" fill="black" transform="translate(-13,48)" text-anchor="middle"><tspan x="19.5" y="16.8"> </tspan></text><path stroke="#000000" fill="none" transform="translate(-13,48)" d="M 0 0"/></g><g transform="translate(127,230)"><g><g>
<g fill="#FFFFFF">
    <rect y="0" width="654" height="5"/>
</g>
<g stroke="#000000" stroke-dasharray="none">
    <line fill="none" stroke-linejoin="round" x1="0" y1="5" x2="646.5" y2="5"/>
</g>
<rect x="25.6" y="0.2" fill="none" width="602.8" height="4.6"/>
<circle fill="none" cx="347.5" cy="5" r="0.1"/>
<circle fill="none" cx="457.6" cy="5" r="0.1"/>
<circle fill="none" cx="567.6" cy="5" r="0.1"/>
<circle fill="none" cx="622.6" cy="5" r="0.1"/>
<circle fill="none" cx="512.5" cy="5" r="0.1"/>
<circle fill="none" cx="402.5" cy="5" r="0.1"/>
<circle fill="none" cx="292.4" cy="5" r="0.1"/>
<circle fill="none" cx="182.3" cy="5" r="0.1"/>
<circle fill="none" cx="72.3" cy="5" r="0.1"/>
<circle fill="none" cx="17.2" cy="5" r="0.1"/>
<circle fill="none" cx="127.3" cy="5" r="0.1"/>
<circle fill="none" cx="237.4" cy="5" r="0.1"/>
</g></g><rect stroke="none" stroke-width="1" fill="#FFFFFF" x="0" y="0" width="40" height="20" transform="translate(0.3,24.9)"/><path stroke="#000000" fill="none" d="M72.3,5 C49.2,-1.3 60.8,31.2 37.7 24.9"/><text font-family="OpenSansCondensedLight" font-size="14pt" fill="black" transform="translate(0.3,24.9)" text-anchor="middle"><tspan x="20" y="16.3">216</tspan></text><rect stroke-width="0" fill="none" width="602.8" height="4.6" transform="translate(25.6,0.2)"/><text font-family="OpenSansCondensedLight" font-size="14pt" fill="black" transform="translate(25.6,0.2)" text-anchor="middle"><tspan x="301.4" y="8.6"> </tspan></text><path stroke="#000000" fill="none" transform="translate(25.6,0.2)" d="M 0 0"/></g><g><path stroke="black" stroke-dasharray="none" d="M 126 190 126 237" fill="none"/><path fill="black" stroke="black" d="" transform="translate(126,190) scale(1,1) rotate(-270)"/><path fill="black" stroke="black" d="" transform="translate(126,237) scale(1,1) rotate(-90)"/><g><g label-idx="0" cursor="move" transform="translate(126, 213.5)"><rect fill="white" rx="3" ry="3" x="0" y="0" width="0" height="0"/><text text-anchor="middle" font-size="14pt" font-family="OpenSansCondensedLight" y="0.8em" display="none" xml:space="preserve" transform="translate(0,0)"/></g></g></g><g><path stroke="black" stroke-dasharray="none" d="M 239 189 239 235" fill="none"/><path fill="black" stroke="black" d="" transform="translate(239,189) scale(1,1) rotate(-270)"/><path fill="black" stroke="black" d="" transform="translate(239,235) scale(1,1) rotate(-90)"/><g><g label-idx="0" cursor="move" transform="translate(239, 212)"><rect fill="white" rx="3" ry="3" x="0" y="0" width="0" height="0"/><text text-anchor="middle" font-size="14pt" font-family="OpenSansCondensedLight" y="0.8em" display="none" xml:space="preserve" transform="translate(0,0)"/></g></g></g><g><path stroke="black" stroke-dasharray="none" d="M 364 190 364 235" fill="none"/><path fill="black" stroke="black" d="" transform="translate(364,190) scale(1,1) rotate(-270)"/><path fill="black" stroke="black" d="" transform="translate(364,235) scale(1,1) rotate(-90)"/><g><g label-idx="0" cursor="move" transform="translate(364, 212.5)"><rect fill="white" rx="3" ry="3" x="0" y="0" width="0" height="0"/><text text-anchor="middle" font-size="14pt" font-family="OpenSansCondensedLight" y="0.8em" display="none" xml:space="preserve" transform="translate(0,0)"/></g></g></g><g><path stroke="black" stroke-dasharray="none" d="M 534 190 534 235" fill="none"/><path fill="black" stroke="black" d="" transform="translate(534,190) scale(1,1) rotate(-270)"/><path fill="black" stroke="black" d="" transform="translate(534,235) scale(1,1) rotate(-90)"/><g><g label-idx="0" cursor="move" transform="translate(534, 212.5)"><rect fill="white" rx="3" ry="3" x="0" y="0" width="0" height="0"/><text text-anchor="middle" font-size="14pt" font-family="OpenSansCondensedLight" y="0.8em" display="none" xml:space="preserve" transform="translate(0,0)"/></g></g></g><g><path stroke="black" stroke-dasharray="none" d="M 772 192 772 235" fill="none"/><path fill="black" stroke="black" d="" transform="translate(772,192) scale(1,1) rotate(-270)"/><path fill="black" stroke="black" d="" transform="translate(772,235) scale(1,1) rotate(-90)"/><g><g label-idx="0" cursor="move" transform="translate(772, 213.5)"><rect fill="white" rx="3" ry="3" x="0" y="0" width="0" height="0"/><text text-anchor="middle" font-size="14pt" font-family="OpenSansCondensedLight" y="0.8em" display="none" xml:space="preserve" transform="translate(0,0)"/></g></g></g><g transform="translate(193,338)"><g><g>
<path d="M133,0H0v61h133V0L133,0z" stroke="#000000" stroke-dasharray="none" fill="#FFFFFF"/>
<rect x="5.8" y="2.8" width="121.4" height="55.4" fill="none"/>
<circle fill="none" cx="66.5" cy="0" r="0.1"/>
<circle fill="none" cx="99.5" cy="0" r="0.1"/>
<circle fill="none" cx="133" cy="15.4" r="0.1"/>
<circle fill="none" cx="133" cy="30.5" r="0.1"/>
<circle fill="none" cx="133" cy="45.6" r="0.1"/>
<circle fill="none" cx="99.5" cy="61" r="0.1"/>
<circle fill="none" cx="66.5" cy="61" r="0.1"/>
<circle fill="none" cx="33.6" cy="61" r="0.1"/>
<circle fill="none" cx="0" cy="45.6" r="0.1"/>
<circle fill="none" cx="0" cy="30.5" r="0.1"/>
<circle fill="none" cx="0" cy="15.4" r="0.1"/>
<circle fill="none" cx="33.6" cy="0" r="0.1"/>
</g></g><rect stroke="none" stroke-width="1" fill="#FFFFFF" x="0" y="0" width="40" height="20" transform="translate(-16.5,-62.1)"/><path stroke="#000000" fill="none" d="M33.6,0 C41.1,-28.2 1.7,-13.9 9.2 -42.1"/><text font-family="OpenSansCondensedLight" font-size="14pt" fill="black" transform="translate(-16.5,-62.1)" text-anchor="middle"><tspan x="20" y="16.3">218</tspan></text><rect stroke-width="0" fill="none" width="121.4" height="55.4" transform="translate(5.8,2.8)"/><text font-family="OpenSansCondensedLight" font-size="14pt" fill="black" transform="translate(5.8,2.8)" text-anchor="middle"><tspan x="60.7" y="13">USER</tspan><tspan x="60.7" y="34">INTERFACE</tspan><tspan x="60.7" y="55">ADAPTER</tspan></text><path stroke="#000000" fill="none" transform="translate(5.8,2.8)" d="M 0 0"/></g><g transform="translate(39,342)"><g><g>
<g stroke="#000000" stroke-dasharray="none" fill="#FFFFFF">
    <path d="M103.5,52h-99.1C2,52,0,50,0,47.5V4.5C0,2,2,0,4.5,0h99.1c2.5,0,4.5,2,4.5,4.5v43.1C108,50,106,52,103.5,52z"/>
    <path d="M32,34.2h-5.4c-0.2,0,-0.5,-0.2,-0.5,-0.5V28.2c0,-0.2,0.2,-0.5,0.5,-0.5h5.4c0.2,0,0.5,0.2,0.5,0.5v5.5C32.6,33.9,32.4,34.2,32,34.2z"/>
    <path d="M41.9,34.2h-5.4c-0.2,0,-0.5,-0.2,-0.5,-0.5V28.2c0,-0.2,0.2,-0.5,0.5,-0.5h5.4c0.2,0,0.5,0.2,0.5,0.5v5.5C42.4,33.9,42.2,34.2,41.9,34.2z"/>
    <path d="M51.7,34.2H46.3c-0.2,0,-0.5,-0.2,-0.5,-0.5V28.2c0,-0.2,0.2,-0.5,0.5,-0.5h5.4c0.2,0,0.5,0.2,0.5,0.5v5.5C52.3,33.9,52.1,34.2,51.7,34.2z"/>
    <path d="M61.6,34.2h-5.4c-0.2,0,-0.5,-0.2,-0.5,-0.5V28.2c0,-0.2,0.2,-0.5,0.5,-0.5H61.6c0.2,0,0.5,0.2,0.5,0.5v5.5C62.1,33.9,61.9,34.2,61.6,34.2z"/>
    <path d="M71.4,34.2h-5.4c-0.2,0,-0.5,-0.2,-0.5,-0.5V28.2c0,-0.2,0.2,-0.5,0.5,-0.5h5.4c0.2,0,0.5,0.2,0.5,0.5v5.5C72,33.9,71.8,34.2,71.4,34.2z"/>
    <path d="M81.3,34.2h-5.4c-0.2,0,-0.5,-0.2,-0.5,-0.5V28.2c0,-0.2,0.2,-0.5,0.5,-0.5h5.4c0.2,0,0.5,0.2,0.5,0.5v5.5C81.7,33.9,81.5,34.2,81.3,34.2z"/>
    <path d="M27.7,24.4H22.3c-0.2,0,-0.5,-0.2,-0.5,-0.5v-5.5c0,-0.2,0.2,-0.5,0.5,-0.5h5.4c0.2,0,0.5,0.2,0.5,0.5v5.5C28.3,24.1,28,24.4,27.7,24.4z"/>
    <path d="M37.5,24.4h-5.4c-0.2,0,-0.5,-0.2,-0.5,-0.5v-5.5c0,-0.2,0.2,-0.5,0.5,-0.5H37.5c0.2,0,0.5,0.2,0.5,0.5v5.5C38,24.1,37.8,24.4,37.5,24.4z"/>
    <path d="M47.4,24.4h-5.4c-0.2,0,-0.5,-0.2,-0.5,-0.5v-5.5c0,-0.2,0.2,-0.5,0.5,-0.5h5.4c0.2,0,0.5,0.2,0.5,0.5v5.5C47.8,24.1,47.6,24.4,47.4,24.4z"/>
    <path d="M57.2,24.4h-5.4c-0.2,0,-0.5,-0.2,-0.5,-0.5v-5.5c0,-0.2,0.2,-0.5,0.5,-0.5h5.4c0.2,0,0.5,0.2,0.5,0.5v5.5C57.7,24.1,57.5,24.4,57.2,24.4z"/>
    <path d="M67.1,24.4h-5.4c-0.2,0,-0.5,-0.2,-0.5,-0.5v-5.5c0,-0.2,0.2,-0.5,0.5,-0.5h5.4c0.2,0,0.5,0.2,0.5,0.5v5.5C67.5,24.1,67.3,24.4,67.1,24.4z"/>
    <path d="M76.9,24.4h-5.5c-0.2,0,-0.5,-0.2,-0.5,-0.5v-5.5c0,-0.2,0.2,-0.5,0.5,-0.5H76.8c0.2,0,0.5,0.2,0.5,0.5v5.5C77.4,24.1,77.2,24.4,76.9,24.4z"/>
    <path d="M86.8,24.4h-5.4c-0.2,0,-0.5,-0.2,-0.5,-0.5v-5.5c0,-0.2,0.2,-0.5,0.5,-0.5H86.8c0.2,0,0.5,0.2,0.5,0.5v5.5C87.2,24.1,87,24.4,86.8,24.4z"/>
    <path d="M13.5,14.5H8.1c-0.2,0,-0.5,-0.2,-0.5,-0.5V8.5c0,-0.2,0.2,-0.5,0.5,-0.5H13.5c0.2,0,0.5,0.2,0.5,0.5v5.5C14,14.2,13.7,14.5,13.5,14.5z"/>
    <path d="M23,14.5H17.6c-0.2,0,-0.5,-0.2,-0.5,-0.5V8.5c0,-0.2,0.2,-0.5,0.5,-0.5h5.4c0.2,0,0.5,0.2,0.5,0.5v5.5C23.6,14.2,23.3,14.5,23,14.5z"/>
    <path d="M32.6,14.5h-5.4c-0.2,0,-0.5,-0.2,-0.5,-0.5V8.5c0,-0.2,0.2,-0.5,0.5,-0.5h5.4c0.2,0,0.5,0.2,0.5,0.5v5.5C33.2,14.2,33,14.5,32.6,14.5z"/>
    <path d="M42.2,14.5h-5.4c-0.2,0,-0.5,-0.2,-0.5,-0.5V8.5c0,-0.2,0.2,-0.5,0.5,-0.5H42.2c0.2,0,0.5,0.2,0.5,0.5v5.5C42.7,14.2,42.4,14.5,42.2,14.5z"/>
    <path d="M51.7,14.5H46.3c-0.2,0,-0.5,-0.2,-0.5,-0.5V8.5c0,-0.2,0.2,-0.5,0.5,-0.5h5.4c0.2,0,0.5,0.2,0.5,0.5v5.5C52.3,14.2,52.1,14.5,51.7,14.5z"/>
    <path d="M61.3,14.5h-5.4c-0.2,0,-0.5,-0.2,-0.5,-0.5V8.5c0,-0.2,0.2,-0.5,0.5,-0.5h5.4c0.2,0,0.5,0.2,0.5,0.5v5.5C61.9,14.2,61.7,14.5,61.3,14.5z"/>
    <path d="M70.9,14.5h-5.4c-0.2,0,-0.5,-0.2,-0.5,-0.5V8.5c0,-0.2,0.2,-0.5,0.5,-0.5H70.9c0.2,0,0.5,0.2,0.5,0.5v5.5C71.4,14.2,71.2,14.5,70.9,14.5z"/>
    <path d="M80.4,14.5H75c-0.2,0,-0.5,-0.2,-0.5,-0.5V8.5c0,-0.2,0.2,-0.5,0.5,-0.5h5.4c0.2,0,0.5,0.2,0.5,0.5v5.5C81,14.2,80.8,14.5,80.4,14.5z"/>
    <path d="M90.1,14.5h-5.4c-0.2,0,-0.5,-0.2,-0.5,-0.5V8.5c0,-0.2,0.2,-0.5,0.5,-0.5h5.4c0.2,0,0.5,0.2,0.5,0.5v5.5C90.5,14.2,90.3,14.5,90.1,14.5z"/>
    <path d="M99.7,14.5h-5.4c-0.2,0,-0.5,-0.2,-0.5,-0.5V8.5c0,-0.2,0.2,-0.5,0.5,-0.5H99.7c0.2,0,0.5,0.2,0.5,0.5v5.5C100.1,14.2,99.9,14.5,99.7,14.5z"/>
    <path d="M26.5,44h54.8c0.4,0,0.6,-0.2,0.6,-0.6v-5.4c0,-0.4,-0.2,-0.6,-0.6,-0.6H26.5c-0.4,0,-0.6,0.2,-0.6,0.6v5.4C25.9,43.8,26.1,44,26.5,44z"/>
    <path d="M8.1,44h14.1c0.4,0,0.6,-0.2,0.6,-0.6v-5.4c0,-0.4,-0.2,-0.6,-0.6,-0.6h-14.1c-0.4,0,-0.6,0.2,-0.6,0.6v5.4C7.5,43.8,7.7,44,8.1,44z"/>
    <path d="M85.7,44h14.2c0.4,0,0.6,-0.2,0.6,-0.6v-5.4c0,-0.4,-0.2,-0.6,-0.6,-0.6h-14.2c-0.4,0,-0.6,0.2,-0.6,0.6v5.4C85.1,43.8,85.4,44,85.7,44z"/>
    <path d="M85.7,34.2h14.2c0.4,0,0.6,-0.2,0.6,-0.6V28.2c0,-0.4,-0.2,-0.6,-0.6,-0.6h-14.2c-0.4,0,-0.6,0.2,-0.6,0.6v5.4C85.1,33.9,85.4,34.2,85.7,34.2z"/>
    <path d="M8.1,34.2h14.1c0.4,0,0.6,-0.2,0.6,-0.6V28.2c0,-0.4,-0.2,-0.6,-0.6,-0.6h-14.1c-0.4,0,-0.6,0.2,-0.6,0.6v5.4C7.5,33.9,7.7,34.2,8.1,34.2z"/>
    <path d="M8.1,24.4h9.7c0.4,0,0.6,-0.2,0.6,-0.6v-5.4c0,-0.4,-0.2,-0.6,-0.6,-0.6H8.1c-0.4,0,-0.6,0.2,-0.6,0.6v5.4C7.5,24.1,7.7,24.4,8.1,24.4z"/>
    <path d="M91.1,24.4h8.8c0.4,0,0.6,-0.2,0.6,-0.6v-5.4c0,-0.4,-0.2,-0.6,-0.6,-0.6h-8.8c-0.4,0,-0.6,0.2,-0.6,0.6v5.4C90.5,24.1,90.9,24.4,91.1,24.4z"/>
</g>
<rect x="3.9" y="2.7" fill="none" width="100.3" height="46.7"/>
<circle fill="none" cx="53.9" cy="0" r="0.1"/>
<circle fill="none" cx="84" cy="0" r="0.1"/>
<circle fill="none" cx="108" cy="6.6" r="0.1"/>
<circle fill="none" cx="108" cy="26.1" r="0.1"/>
<circle fill="none" cx="108" cy="45.5" r="0.1"/>
<circle fill="none" cx="83.9" cy="52" r="0.1"/>
<circle fill="none" cx="53.8" cy="52" r="0.1"/>
<circle fill="none" cx="18.4" cy="52" r="0.1"/>
<circle fill="none" cx="0" cy="45.6" r="0.1"/>
<circle fill="none" cx="0" cy="26.2" r="0.1"/>
<circle fill="none" cx="0" cy="6.6" r="0.1"/>
<circle fill="none" cx="18.5" cy="0.1" r="0.1"/>
</g></g><rect stroke="none" stroke-width="0" fill="#FFFFFF" x="0" y="0" width="0" height="0" transform="translate(107.9,26)"/><path stroke="#000000" fill="none" d=""/><text font-family="OpenSansCondensedLight" font-size="14pt" fill="black" transform="translate(107.9,26)"/><rect stroke-width="0" fill="none" width="324.6" transform="translate(-108.3,62.1)"/><text font-family="OpenSansCondensedLight" font-size="14pt" fill="black" transform="translate(-108.3,62.1)" text-anchor="middle"><tspan x="162.3" y="16.8"> 220</tspan></text><path stroke="#000000" fill="none" transform="translate(-108.3,62.1)" d="M 148.3 19 176.3 19"/></g><g><path stroke="black" stroke-dasharray="none" d="M 147 368 193 368" fill="none"/><path fill="black" stroke="black" d="" transform="translate(147,368) scale(1,1) rotate(0)"/><path fill="black" stroke="black" d="" transform="translate(193,368) scale(1,1) rotate(-180)"/><g><g label-idx="0" cursor="move" transform="translate(170, 368)"><rect fill="white" rx="3" ry="3" x="0" y="0" width="0" height="0"/><text text-anchor="middle" font-size="14pt" font-family="OpenSansCondensedLight" y="0.8em" display="none" xml:space="preserve" transform="translate(0,0)"/></g></g></g><g transform="translate(191,451)"><g><g>
<g stroke="#000000" stroke-dasharray="none" fill="#FFFFFF">
    <g>
        <path d="M26,23.8V15.8c0,-0.4,-0.4,-0.7,-0.9,-0.7s-0.9,0.3,-0.9,0.7v7.9c0,4.7,-5,8.6,-11.2,8.6S1.8,28.5,1.8,23.8V15.8c0,-0.4,-0.4,-0.7,-0.9,-0.7S0,15.4,0,15.8v7.9C0,29,5.4,33.3,12.1,33.7v4H4.3c-0.5,0,-0.9,0.3,-0.9,0.7s0.4,0.7,0.9,0.7h17.4c0.5,0,0.9,-0.3,0.9,-0.7s-0.4,-0.7,-0.9,-0.7H13.9v-4C20.7,33.3,26,29,26,23.8L26,23.8z"/>
    </g>
    <path d="M6.3,5.1C6.3,2.3,9.3,0,13,0S19.7,2.3,19.7,5.1v19c0,2.8,-3,5.1,-6.7,5.1S6.3,26.9,6.3,24.1V5.1z"/>
    <line x1="6.3" y1="5.1" x2="12.6" y2="5.1"/>
    <line x1="6.3" y1="7.2" x2="12.6" y2="7.2"/>
    <line x1="6.3" y1="9.3" x2="12.6" y2="9.3"/>
    <line x1="6.3" y1="11.4" x2="12.6" y2="11.4"/>
</g>
<rect x="2.6" y="3.8" fill="none" width="20.8" height="25.8"/>
<circle fill="none" cx="13" cy="0" r="0.1"/>
<circle fill="none" cx="19.7" cy="5.1" r="0.1"/>
<circle fill="none" cx="19.8" cy="11.4" r="0.1"/>
<circle fill="none" cx="26" cy="17.2" r="0.1"/>
<circle fill="none" cx="24.9" cy="27.8" r="0.1"/>
<circle fill="none" cx="22.6" cy="38.3" r="0.1"/>
<circle fill="none" cx="13" cy="39" r="0.1"/>
<circle fill="none" cx="3.4" cy="38.3" r="0.1"/>
<circle fill="none" cx="1.2" cy="27.8" r="0.1"/>
<circle fill="none" cx="0" cy="17.2" r="0.1"/>
<circle fill="none" cx="6.3" cy="11.4" r="0.1"/>
<circle fill="none" cx="6.2" cy="5.1" r="0.1"/>
</g></g><rect stroke="none" stroke-width="0" fill="#FFFFFF" x="0" y="0" width="0" height="0" transform="translate(25.9,17.1)"/><path stroke="#000000" fill="none" d=""/><text font-family="OpenSansCondensedLight" font-size="14pt" fill="black" transform="translate(25.9,17.1)"/><rect stroke-width="0" fill="none" width="78.6" transform="translate(-26.3,49.1)"/><text font-family="OpenSansCondensedLight" font-size="14pt" fill="black" transform="translate(-26.3,49.1)" text-anchor="middle"><tspan x="39.3" y="16.8"> 222</tspan></text><path stroke="#000000" fill="none" transform="translate(-26.3,49.1)" d="M 25.3 19 53.3 19"/></g><g transform="translate(318,445)"><g><g>
<g stroke="#000000" stroke-dasharray="none" fill="#FFFFFF">
    <g>
        <path d="M8.9,13.4H0v19.4h8.9L25.6,44.9c0,0,3.1,2.6,3.1,-0.1V0.9c0,-2,-2.7,0,-2.7,0L8.9,13.4z"/>
    </g>
    <path d="M38.2,9.6c-0.9,-0.9,-2.3,-0.9,-3.2,0s-0.9,2.2,0,3.1c3,2.9,4.3,6.6,4.3,10.2s-1.5,7.5,-4.3,10.2c-0.9,0.9,-0.9,2.2,0,3.1c0.5,0.4,1,0.7,1.6,0.7c0.6,0,1.1,-0.2,1.6,-0.7c3.8,-3.7,5.7,-8.6,5.7,-13.5C43.9,18.2,42.1,13.3,38.2,9.6L38.2,9.6z"/>
    <path d="M44.4,2.7c-0.9,-0.9,-2.3,-0.9,-3.2,0s-0.9,2.2,0,3.1c4.9,4.8,7.3,11,7.3,17.3S46.1,35.6,41.2,40.4c-0.9,0.9,-0.9,2.2,0,3.1c0.5,0.4,1,0.7,1.6,0.7s1.1,-0.2,1.6,-0.7c5.8,-5.7,8.6,-13,8.6,-20.5C53,15.7,50.2,8.2,44.4,2.7L44.4,2.7z"/>
</g>
<rect x="3.4" y="8.1" fill="none" width="46.3" height="30.3"/>
<circle fill="none" cx="28.1" cy="0" r="0.1"/>
<circle fill="none" cx="42.6" cy="2" r="0.1"/>
<circle fill="none" cx="50.8" cy="12.1" r="0.1"/>
<circle fill="none" cx="53" cy="23.1" r="0.1"/>
<circle fill="none" cx="51" cy="33.9" r="0.1"/>
<circle fill="none" cx="42.3" cy="44.2" r="0.1"/>
<circle fill="none" cx="27.9" cy="46" r="0.1"/>
<circle fill="none" cx="19.4" cy="40.4" r="0.1"/>
<circle fill="none" cx="8.9" cy="32.7" r="0.1"/>
<circle fill="none" cx="0" cy="23" r="0.1"/>
<circle fill="none" cx="8.8" cy="13.4" r="0.1"/>
<circle fill="none" cx="19.5" cy="5.6" r="0.1"/>
</g></g><rect stroke="none" stroke-width="0" fill="#FFFFFF" x="0" y="0" width="0" height="0" transform="translate(52.9,23)"/><path stroke="#000000" fill="none" d=""/><text font-family="OpenSansCondensedLight" font-size="14pt" fill="black" transform="translate(52.9,23)"/><rect stroke-width="0" fill="none" width="159.6" transform="translate(-53.3,56.1)"/><text font-family="OpenSansCondensedLight" font-size="14pt" fill="black" transform="translate(-53.3,56.1)" text-anchor="middle"><tspan x="79.8" y="16.8"> 224</tspan></text><path stroke="#000000" fill="none" transform="translate(-53.3,56.1)" d="M 65.8 19 93.8 19"/></g><g transform="translate(255,446)"><g><g>
<g stroke="#000000" stroke-dasharray="none" fill="#FFFFFF">
    <path d="M14,42h-1.1C5.8,42,0,36.6,0,30V12C0,5.4,5.8,0,13,0h1.1c7.1,0,13,5.4,13,12v18C27,36.6,21.2,42,14,42z"/>
    <path d="M13.5,11.5L13.5,11.5c-0.9,0,-1.6,-0.7,-1.6,-1.5v-5.2c0,-0.8,0.8,-1.5,1.6,-1.5l0,0c0.9,0,1.6,0.7,1.6,1.5v5.2C15.1,10.9,14.4,11.5,13.5,11.5z"/>
</g>
<rect x="1.5" y="12.5" fill="none" width="24.1" height="16.9"/>
<circle fill="none" cx="13.5" cy="0" r="0.1"/>
<circle fill="none" cx="21.6" cy="2.3" r="0.1"/>
<circle fill="none" cx="26.8" cy="10.2" r="0.1"/>
<circle fill="none" cx="27" cy="20.9" r="0.1"/>
<circle fill="none" cx="26.9" cy="31.5" r="0.1"/>
<circle fill="none" cx="21.5" cy="39.8" r="0.1"/>
<circle fill="none" cx="13.5" cy="42" r="0.1"/>
<circle fill="none" cx="5.4" cy="39.8" r="0.1"/>
<circle fill="none" cx="0.1" cy="31.7" r="0.1"/>
<circle fill="none" cx="0" cy="21" r="0.1"/>
<circle fill="none" cx="0.2" cy="10.2" r="0.1"/>
<circle fill="none" cx="5.4" cy="2.3" r="0.1"/>
</g></g><rect stroke="none" stroke-width="0" fill="#FFFFFF" x="0" y="0" width="0" height="0" transform="translate(26.9,20.8)"/><path stroke="#000000" fill="none" d=""/><text font-family="OpenSansCondensedLight" font-size="14pt" fill="black" transform="translate(26.9,20.8)"/><rect stroke-width="0" fill="none" width="81.6" transform="translate(-27.3,52.1)"/><text font-family="OpenSansCondensedLight" font-size="14pt" fill="black" transform="translate(-27.3,52.1)" text-anchor="middle"><tspan x="40.8" y="16.8"> 226</tspan></text><path stroke="#000000" fill="none" transform="translate(-27.3,52.1)" d="M 26.8 19 54.8 19"/></g><g><path stroke="black" stroke-dasharray="none" d="M 204 451 227 399" fill="none"/><path fill="black" stroke="black" d="" transform="translate(204,451) scale(1,1) rotate(-66.1)"/><path fill="black" stroke="black" d="" transform="translate(227,399) scale(1,1) rotate(-246.1)"/><g><g label-idx="0" cursor="move" transform="translate(215.5, 425)"><rect fill="white" rx="3" ry="3" x="0" y="0" width="0" height="0"/><text text-anchor="middle" font-size="14pt" font-family="OpenSansCondensedLight" y="0.8em" display="none" xml:space="preserve" transform="translate(0,0)"/></g></g></g><g><path stroke="black" stroke-dasharray="none" d="M 268 446 259 399" fill="none"/><path fill="black" stroke="black" d="" transform="translate(268,446) scale(1,1) rotate(-100.8)"/><path fill="black" stroke="black" d="" transform="translate(259,399) scale(1,1) rotate(79.2)"/><g><g label-idx="0" cursor="move" transform="translate(263.5, 422.5)"><rect fill="white" rx="3" ry="3" x="0" y="0" width="0" height="0"/><text text-anchor="middle" font-size="14pt" font-family="OpenSansCondensedLight" y="0.8em" display="none" xml:space="preserve" transform="translate(0,0)"/></g></g></g><g><path stroke="black" stroke-dasharray="none" d="M 338 451 295 399" fill="none"/><path fill="black" stroke="black" d="" transform="translate(338,451) scale(1,1) rotate(-129.6)"/><path fill="black" stroke="black" d="" transform="translate(295,399) scale(1,1) rotate(50.4)"/><g><g label-idx="0" cursor="move" transform="translate(316.5, 425)"><rect fill="white" rx="3" ry="3" x="0" y="0" width="0" height="0"/><text text-anchor="middle" font-size="14pt" font-family="OpenSansCondensedLight" y="0.8em" display="none" xml:space="preserve" transform="translate(0,0)"/></g></g></g><g><path stroke="black" stroke-dasharray="none" d="M 259 338 259 235" fill="none"/><path fill="black" stroke="black" d="" transform="translate(259,338) scale(1,1) rotate(-90)"/><path fill="black" stroke="black" d="" transform="translate(259,235) scale(1,1) rotate(-270)"/><g><g label-idx="0" cursor="move" transform="translate(259, 286.5)"><rect fill="white" rx="3" ry="3" x="0" y="0" width="0" height="0"/><text text-anchor="middle" font-size="14pt" font-family="OpenSansCondensedLight" y="0.8em" display="none" xml:space="preserve" transform="translate(0,0)"/></g></g></g><g transform="translate(484,312)"><g><g>
<path d="M94.5,0H0v94.5h94.5V0L94.5,0z" stroke="#000000" stroke-dasharray="none" fill="#FFFFFF"/>
<rect x="4.1" y="4.3" width="86.2" height="85.9" fill="none"/>
<circle fill="none" cx="47.2" cy="0" r="0.1"/>
<circle fill="none" cx="70.7" cy="0" r="0.1"/>
<circle fill="none" cx="94.5" cy="23.8" r="0.1"/>
<circle fill="none" cx="94.5" cy="47.2" r="0.1"/>
<circle fill="none" cx="94.5" cy="70.7" r="0.1"/>
<circle fill="none" cx="70.7" cy="94.5" r="0.1"/>
<circle fill="none" cx="47.2" cy="94.5" r="0.1"/>
<circle fill="none" cx="23.8" cy="94.5" r="0.1"/>
<circle fill="none" cx="0" cy="70.7" r="0.1"/>
<circle fill="none" cx="0" cy="47.2" r="0.1"/>
<circle fill="none" cx="0" cy="23.8" r="0.1"/>
<circle fill="none" cx="23.8" cy="0" r="0.1"/>
</g></g><rect stroke="none" stroke-width="1" fill="#FFFFFF" x="0" y="0" width="40" height="20" transform="translate(-80.1,37.1)"/><path stroke="#000000" fill="none" d="M0,47.2 C-17,30.2 -23.1,64.2 -40.1 47.2"/><text font-family="OpenSansCondensedLight" font-size="14pt" fill="black" transform="translate(-80.1,37.1)" text-anchor="middle"><tspan x="20" y="16.3">228</tspan></text><rect stroke-width="0" fill="none" width="86.2" height="85.9" transform="translate(4.1,4.3)"/><text font-family="OpenSansCondensedLight" font-size="14pt" fill="black" transform="translate(4.1,4.3)" text-anchor="middle"><tspan x="43.1" y="38.7">DISPLAY</tspan><tspan x="43.1" y="59.7">ADAPTER</tspan></text><path stroke="#000000" fill="none" transform="translate(4.1,4.3)" d="M 0 0"/></g><g><path stroke="black" stroke-dasharray="none" d="M 529 312 529 235" fill="none"/><path fill="black" stroke="black" d="" transform="translate(529,312) scale(1,1) rotate(-90)"/><path fill="black" stroke="black" d="" transform="translate(529,235) scale(1,1) rotate(-270)"/><g><g label-idx="0" cursor="move" transform="translate(529, 273.5)"><rect fill="white" rx="3" ry="3" x="0" y="0" width="0" height="0"/><text text-anchor="middle" font-size="14pt" font-family="OpenSansCondensedLight" y="0.8em" display="none" xml:space="preserve" transform="translate(0,0)"/></g></g></g><g transform="translate(656,346)"><g><g>
<g stroke-width="0.5" stroke="#000000" stroke-dasharray="none" fill="#FFFFFF">
    <path d="M90.4,0c0.1,0,0.3,0.1,0.3,0.1c0.1,0,0.2,0.1,0.3,0.2c0.1,0.1,0.2,0.2,0.2,0.3c0.1,0.1,0.1,0.2,0.1,0.3l1.4,51.4c0,0.1,0,0.2,-0.1,0.4c-0.1,0.1,-0.1,0.2,-0.2,0.3c-0.1,0.1,-0.2,0.2,-0.3,0.2c-0.1,0.1,-0.2,0.1,-0.3,0.1H7.3c-0.1,0,-0.2,-0.1,-0.3,-0.1c-0.1,-0.1,-0.2,-0.1,-0.3,-0.2c-0.1,-0.1,-0.2,-0.2,-0.2,-0.3c-0.1,-0.1,-0.1,-0.3,-0.1,-0.4l1.3,-51.3c0,-0.1,0.1,-0.2,0.1,-0.3c0.1,-0.1,0.1,-0.2,0.2,-0.3c0.1,-0.1,0.2,-0.1,0.3,-0.2C8.4,0.1,8.5,0,8.6,0H90.4z"/>
    <path d="M91.6,53.4c0.1,0,0.2,0,0.4,0.1s0.2,0.1,0.3,0.1c0.1,0.1,0.2,0.1,0.2,0.1c0.1,0.1,0.1,0.1,0.1,0.2l6.4,25.2c-0.1,0.4,-0.7,0.5,-0.9,0.5H0.9c-0.2,0,-0.3,-0,-0.4,-0.1c-0.4,-0.1,-0.5,-0.4,-0.5,-0.5l6.3,-25.2c0,-0.1,0.1,-0.1,0.1,-0.2c0.1,-0.1,0.1,-0.1,0.2,-0.1c0.1,-0.1,0.2,-0.1,0.3,-0.1c0.1,-0.1,0.3,-0.1,0.4,-0.1L91.6,53.4L91.6,53.4z"/>
    <path d="M99,79.1c-0.1,0.7,-0.1,1.4,-0.2,2.1c-0,0.1,-0.3,0.3,-0.4,0.4c-0.1,0.1,-0.5,0.1,-0.6,0.1l0.2,-2C98.6,79.6,99,79.3,99,79.1z"/>
    <polygon points="98.1,79.6 97.9,81.6 1,81.6 0.9,79.6"/>
    <path d="M1.1,81.6c-0.1,0,-0.3,0,-0.5,-0.1c-0.2,-0.1,-0.4,-0.2,-0.4,-0.2c-0.1,-0.1,-0.1,-0.1,-0.1,-0.2l0,0c-0.1,-0.7,-0.1,-1.4,-0.2,-2.1c0,0.2,0.3,0.5,0.9,0.5"/>
    <path d="M94.3,67.5c0,0.4,-0.3,0.8,-0.7,0.8H6.1c-0.4,0,-0.7,-0.3,-0.7,-0.8l3,-12c0,-0.4,0.3,-0.8,0.7,-0.8h81.5c0.4,0,0.7,0.3,0.7,0.8L94.3,67.5z"/>
    <path d="M8.5,58.5c0.1,0.1,0.1,0.1,0.1,0.1c0.1,0,0.1,0,0.2,0h3.9c0.1,0,0.1,0,0.2,0s0.1,-0.1,0.1,-0.1s0.1,-0.1,0.1,-0.1c0.1,-0.1,0.1,-0.1,0.1,-0.1l0.3,-1.5c0,-0.1,0,-0.1,-0.1,-0.1c-0.1,-0.1,-0.1,-0.1,-0.1,-0.1c-0.1,0,-0.1,-0.1,-0.1,-0.1c-0.1,0,-0.1,0,-0.2,0H9.2c-0.1,0,-0.1,0,-0.2,0c-0.1,0,-0.1,0.1,-0.1,0.1c-0.1,0.1,-0.1,0.1,-0.1,0.1c-0.1,0.1,-0.1,0.1,-0.1,0.1l-0.3,1.5c0,0.1,0,0.1,0,0.1C8.4,58.5,8.4,58.5,8.5,58.5L8.5,58.5zM13.6,58.5c0.1,0.1,0.1,0.1,0.1,0.1c0.1,0,0.1,0,0.2,0h3.9c0.1,0,0.1,0,0.2,0s0.1,-0.1,0.1,-0.1c0.1,-0.1,0.1,-0.1,0.1,-0.1c0.1,-0.1,0.1,-0.1,0.1,-0.1l0.3,-1.5c0,-0.1,0,-0.1,-0.1,-0.1c-0.1,-0.1,-0.1,-0.1,-0.1,-0.1c-0.1,0,-0.1,-0.1,-0.1,-0.1s-0.1,0,-0.2,0H14.3c-0.1,0,-0.1,0,-0.2,0s-0.1,0.1,-0.1,0.1s-0.1,0.1,-0.1,0.1c-0.1,0.1,-0.1,0.1,-0.1,0.1l-0.3,1.5c0,0.1,0,0.1,0.1,0.1C13.6,58.5,13.6,58.5,13.6,58.5L13.6,58.5zM19.2,56.8c-0.1,0,-0.1,0.1,-0.1,0.1s-0.1,0.1,-0.1,0.1c-0.1,0.1,-0.1,0.1,-0.1,0.1l-0.3,1.5c0,0.1,0,0.1,0.1,0.1c0.1,0.1,0.1,0.1,0.1,0.1c0.1,0.1,0.1,0.1,0.1,0.1c0.1,0,0.1,0,0.2,0h3.9c0.1,0,0.1,0,0.2,0s0.1,-0.1,0.1,-0.1c0.1,-0.1,0.1,-0.1,0.1,-0.1c0.1,-0.1,0.1,-0.1,0.1,-0.1l0.2,-1.5c0,-0.1,0,-0.1,-0.1,-0.1c-0.1,-0.1,-0.1,-0.1,-0.1,-0.1c-0.1,0,-0.1,-0.1,-0.1,-0.1s-0.1,0,-0.2,0h-3.9C19.3,56.7,19.3,56.7,19.2,56.8L19.2,56.8zM24.1,58.5c0.1,0,0.1,0,0.2,0h3.9c0.1,0,0.1,0,0.2,0s0.1,-0.1,0.1,-0.1c0.1,-0.1,0.1,-0.1,0.1,-0.1c0.1,-0.1,0.1,-0.1,0.1,-0.1l0.2,-1.5c0,-0.1,0,-0.1,-0.1,-0.1c-0.1,-0.1,-0.1,-0.1,-0.1,-0.1c-0.1,0,-0.1,-0.1,-0.1,-0.1s-0.1,0,-0.2,0h-3.8c-0.1,0,-0.1,0,-0.2,0s-0.1,0.1,-0.1,0.1c-0.1,0.1,-0.1,0.1,-0.1,0.1c-0.1,0.1,-0.1,0.1,-0.1,0.1l-0.2,1.5c0,0.1,0,0.1,0.1,0.1c0.1,0.1,0.1,0.1,0.1,0.1C24,58.5,24.1,58.5,24.1,58.5L24.1,58.5zM33.7,56.8c-0.1,-0.1,-0.1,-0.1,-0.1,-0.1s-0.1,0,-0.2,0h-3.9c-0.1,0,-0.1,0,-0.2,0c-0.1,0,-0.1,0.1,-0.1,0.1c-0.1,0,-0.1,0.1,-0.1,0.1c-0.1,0.1,-0.1,0.1,-0.1,0.1l-0.1,1.5c0,0.1,0,0.1,0.1,0.1c0.1,0.1,0.1,0.1,0.1,0.1c0.1,0.1,0.1,0.1,0.1,0.1s0.1,0,0.2,0h3.9c0.1,0,0.1,0,0.2,0c0.1,0,0.1,-0.1,0.1,-0.1c0.1,-0.1,0.1,-0.1,0.1,-0.1c0.1,-0.1,0.1,-0.1,0.1,-0.1l0.1,-1.5c0,-0.1,0,-0.1,-0.1,-0.1C33.9,56.9,33.9,56.8,33.7,56.8L33.7,56.8zM38.9,56.8c-0.1,0,-0.1,-0.1,-0.1,-0.1s-0.1,0,-0.2,0h-3.9c-0.1,0,-0.1,0,-0.2,0c-0.1,0,-0.1,0.1,-0.1,0.1c-0.1,0,-0.1,0.1,-0.1,0.1c-0.1,0.1,-0.1,0.1,-0.1,0.1l-0.1,1.5c0,0.1,0,0.1,0.1,0.1c0.1,0.1,0.1,0.1,0.1,0.1c0.1,0.1,0.1,0.1,0.1,0.1s0.1,0,0.2,0h3.9c0.1,0,0.1,0,0.2,0c0.1,0,0.1,-0.1,0.1,-0.1c0.1,0,0.1,-0.1,0.1,-0.1c0.1,-0.1,0.1,-0.1,0.1,-0.1l0.1,-1.5c0,-0.1,0,-0.1,-0.1,-0.1C39,56.9,38.9,56.8,38.9,56.8zM44,56.8c-0.1,0,-0.1,-0.1,-0.1,-0.1c-0.1,0,-0.1,0,-0.2,0h-3.9c-0.1,0,-0.1,0,-0.2,0s-0.1,0.1,-0.1,0.1s-0.1,0.1,-0.1,0.1c-0.1,0.1,-0.1,0.1,-0.1,0.1l-0.1,1.5c0,0.1,0,0.1,0.1,0.1c0.1,0.1,0.1,0.1,0.1,0.1c0.1,0.1,0.1,0.1,0.1,0.1c0.1,0,0.1,0,0.2,0h3.9c0.1,0,0.1,0,0.2,0c0.1,0,0.1,-0.1,0.1,-0.1c0.1,-0.1,0.1,-0.1,0.1,-0.1c0.1,-0.1,0.1,-0.1,0.1,-0.1l0.1,-1.5c0,-0.1,0,-0.1,-0.1,-0.1C44.1,56.9,44,56.8,44,56.8L44,56.8zM49.3,56.9c-0.1,-0.1,-0.1,-0.1,-0.1,-0.1c-0.1,0,-0.1,-0.1,-0.1,-0.1c-0.1,0,-0.1,0,-0.2,0h-3.9c-0.1,0,-0.1,0,-0.2,0c-0.1,0,-0.1,0.1,-0.1,0.1s-0.1,0.1,-0.1,0.1c-0.1,0.1,-0.1,0.1,-0.1,0.1l-0.1,1.5c0,0.1,0,0.1,0.1,0.1c0.1,0.1,0.1,0.1,0.1,0.1c0.1,0.1,0.1,0.1,0.1,0.1c0.1,0,0.1,0,0.2,0h3.9c0.1,0,0.1,0,0.2,0s0.1,-0.1,0.1,-0.1c0.1,-0.1,0.1,-0.1,0.1,-0.1c0.1,-0.1,0.1,-0.1,0.1,-0.1v-1.5C49.3,56.9,49.3,56.9,49.3,56.9L49.3,56.9zM54.4,56.9c-0.1,-0.1,-0.1,-0.1,-0.1,-0.1c-0.1,0,-0.1,-0.1,-0.1,-0.1c-0.1,0,-0.1,0,-0.2,0h-3.8c-0.1,0,-0.1,0,-0.2,0s-0.1,0.1,-0.1,0.1c-0.1,0,-0.1,0.1,-0.1,0.1c-0.1,0.1,-0.1,0.1,-0.1,0.1v1.5c0,0.1,0,0.1,0.1,0.1c0.1,0.1,0.1,0.1,0.1,0.1c0.1,0.1,0.1,0.1,0.1,0.1c0.1,0,0.1,0,0.2,0h3.9c0.1,0,0.1,0,0.2,0s0.1,-0.1,0.1,-0.1c0.1,-0.1,0.1,-0.1,0.1,-0.1c0.1,-0.1,0.1,-0.1,0.1,-0.1l-0.1,-1.5C54.4,56.9,54.4,56.9,54.4,56.9L54.4,56.9zM59.6,56.9c-0.1,-0.1,-0.1,-0.1,-0.1,-0.1c-0.1,0,-0.1,-0.1,-0.1,-0.1c-0.1,0,-0.1,0,-0.2,0h-3.9c-0.1,0,-0.1,0,-0.2,0s-0.1,0.1,-0.1,0.1c-0.1,0,-0.1,0.1,-0.1,0.1c-0.1,0.1,-0.1,0.1,-0.1,0.1l0.1,1.5c0,0.1,0,0.1,0.1,0.1c0.1,0.1,0.1,0.1,0.1,0.1c0.1,0.1,0.1,0.1,0.1,0.1c0.1,0,0.1,0,0.2,0h3.9c0.1,0,0.1,0,0.2,0s0.1,-0.1,0.1,-0.1c0.1,-0.1,0.1,-0.1,0.1,-0.1c0.1,-0.1,0.1,-0.1,0.1,-0.1l-0.1,-1.5C59.6,56.9,59.6,56.9,59.6,56.9L59.6,56.9zM64.7,56.9c-0.1,-0.1,-0.1,-0.1,-0.1,-0.1c-0.1,0,-0.1,-0.1,-0.1,-0.1c-0.1,0,-0.1,0,-0.2,0h-3.9c-0.1,0,-0.1,0,-0.2,0s-0.1,0.1,-0.1,0.1c-0.1,0,-0.1,0.1,-0.1,0.1c-0.1,0.1,-0.1,0.1,-0.1,0.1l0.1,1.5c0,0.1,0,0.1,0.1,0.1c0.1,0.1,0.1,0.1,0.1,0.1c0.1,0.1,0.1,0.1,0.1,0.1c0.1,0,0.1,0,0.2,0h3.9c0.1,0,0.1,0,0.2,0s0.1,-0.1,0.1,-0.1c0.1,-0.1,0.1,-0.1,0.1,-0.1c0.1,-0.1,0.1,-0.1,0.1,-0.1l-0.1,-1.5C64.7,56.9,64.7,56.9,64.7,56.9L64.7,56.9zM69.8,56.9c-0.1,-0.1,-0.1,-0.1,-0.1,-0.1c-0.1,-0.1,-0.1,-0.1,-0.1,-0.1c-0.1,0,-0.1,0,-0.2,0h-3.9c-0.1,0,-0.1,0,-0.2,0s-0.1,0.1,-0.1,0.1c-0.1,0,-0.1,0.1,-0.1,0.1c-0.1,0.1,-0.1,0.1,-0.1,0.1l0.2,1.5c0,0.1,0.1,0.1,0.1,0.1c0.1,0.1,0.1,0.1,0.1,0.1c0.1,0.1,0.1,0.1,0.1,0.1c0.1,0,0.1,0,0.2,0h3.9c0.1,0,0.1,0,0.2,0s0.1,-0.1,0.1,-0.1c0.1,-0.1,0.1,-0.1,0.1,-0.1c0.1,-0.1,0.1,-0.1,0.1,-0.1l-0.2,-1.5C69.9,56.9,69.9,56.9,69.8,56.9L69.8,56.9zM74.9,56.9c-0.1,-0.1,-0.1,-0.1,-0.1,-0.1c-0.1,0,-0.1,-0.1,-0.1,-0.1c-0.1,0,-0.1,0,-0.2,0h-3.8c-0.1,0,-0.1,0,-0.2,0s-0.1,0.1,-0.1,0.1s-0.1,0.1,-0.1,0.1c-0.1,0.1,-0.1,0.1,-0.1,0.1l0.2,1.5c0,0.1,0.1,0.1,0.1,0.1c0.1,0.1,0.1,0.1,0.1,0.1c0.1,0.1,0.1,0.1,0.1,0.1c0.1,0,0.1,0,0.2,0h3.9c0.1,0,0.1,0,0.2,0s0.1,-0.1,0.1,-0.1c0.1,-0.1,0.1,-0.1,0.1,-0.1c0.1,-0.1,0.1,-0.1,0.1,-0.1l-0.2,-1.5C75,56.9,74.9,56.9,74.9,56.9L74.9,56.9zM85.3,56.9c-0.1,-0.1,-0.1,-0.1,-0.1,-0.1c-0.1,0,-0.1,-0.1,-0.1,-0.1c-0.1,0,-0.1,0,-0.2,0h-9c-0.1,0,-0.1,0,-0.2,0s-0.1,0.1,-0.1,0.1c-0.1,0.1,-0.1,0.1,-0.1,0.1c-0.1,0.1,-0.1,0.1,-0.1,0.1l0.2,1.5c0,0.1,0.1,0.1,0.1,0.1c0.1,0.1,0.1,0.1,0.1,0.1c0.1,0.1,0.1,0.1,0.1,0.1c0.1,0,0.1,0,0.2,0h9.1c0.1,0,0.1,0,0.2,0s0.1,-0.1,0.1,-0.1c0.1,-0.1,0.1,-0.1,0.1,-0.1c0.1,-0.1,0.1,-0.1,0.1,-0.1l-0.3,-1.5L85.3,56.9L85.3,56.9zM86.3,58.5c0.1,0.1,0.1,0.1,0.1,0.1c0.1,0.1,0.1,0.1,0.1,0.1c0.1,0,0.1,0,0.2,0h3.9c0.1,0,0.1,0,0.2,0c0.1,0,0.1,-0.1,0.1,-0.1c0.1,-0.1,0.1,-0.1,0.1,-0.1c0,-0.1,0.1,-0.1,0,-0.1l-0.3,-1.5c0,-0.1,-0.1,-0.1,-0.1,-0.1s-0.1,-0.1,-0.1,-0.1c-0.1,-0.1,-0.1,-0.1,-0.1,-0.1c-0.1,0,-0.1,0,-0.2,0h-3.9c-0.1,0,-0.1,0,-0.2,0s-0.1,0.1,-0.1,0.1c-0.1,0.1,-0.1,0.1,-0.1,0.1c-0.1,0.1,-0.1,0.1,-0.1,0.1l0.3,1.5C86.2,58.5,86.2,58.5,86.3,58.5zM20,60.7c0.1,0,0.1,-0.1,0.1,-0.1c0.1,-0.1,0.1,-0.1,0.1,-0.1c0.1,-0.1,0.1,-0.1,0.1,-0.1l0.3,-1.5c0,-0.1,0,-0.1,-0.1,-0.1c-0.1,-0.1,-0.1,-0.1,-0.1,-0.1c-0.1,-0.1,-0.1,-0.1,-0.1,-0.1c-0.1,0,-0.1,0,-0.2,0H16.2c-0.1,0,-0.1,0,-0.2,0s-0.1,0.1,-0.1,0.1c-0.1,0.1,-0.1,0.1,-0.1,0.1c-0.1,0.1,-0.1,0.1,-0.1,0.1l-0.3,1.5c0,0.1,0,0.1,0.1,0.1c0.1,0.1,0.1,0.1,0.1,0.1c0.1,0.1,0.1,0.1,0.1,0.1c0.1,0,0.1,0,0.2,0h3.9C19.9,60.8,19.9,60.8,20,60.7zM7.9,60.7C8,60.8,8,60.8,8,60.8s0.1,0,0.2,0h6.2c0.1,0,0.1,0,0.2,0c0.1,0,0.1,-0.1,0.1,-0.1c0.1,-0.1,0.1,-0.1,0.1,-0.1c0.1,-0.1,0.1,-0.1,0.1,-0.1l0.3,-1.5c0,-0.1,0,-0.1,-0.1,-0.1c-0.1,-0.1,-0.1,-0.1,-0.1,-0.1c-0.1,-0.1,-0.1,-0.1,-0.1,-0.1c-0.1,0,-0.1,0,-0.2,0H8.6c-0.1,0,-0.1,0,-0.2,0c-0.1,0,-0.1,0.1,-0.1,0.1c-0.1,0.1,-0.1,0.1,-0.1,0.1c-0.1,0.1,-0.1,0.1,-0.1,0.1l-0.4,1.5c0,0.1,0,0.1,0,0.1C7.9,60.7,7.9,60.7,7.9,60.7L7.9,60.7zM25.2,60.7c0.1,0,0.1,-0.1,0.1,-0.1c0.1,0,0.1,0,0.1,0c0.1,-0.1,0.1,-0.1,0.1,-0.1l0.2,-1.5c0,-0.1,0,-0.1,-0.1,-0.1c-0.1,-0.1,-0.1,-0.1,-0.1,-0.1c-0.1,-0.1,-0.1,-0.1,-0.1,-0.1s-0.1,0,-0.2,0h-3.9c-0.1,0,-0.1,0,-0.2,0s-0.1,0.1,-0.1,0.1c-0.1,0.1,-0.1,0.1,-0.1,0.1c-0.1,0.1,-0.1,0.1,-0.1,0.1l-0.3,1.5c0,0.1,0,0.1,0.1,0.1c0.1,0.1,0.1,0.1,0.1,0.1c0.1,0.1,0.1,0.1,0.1,0.1c0.1,0,0.1,0,0.2,0h3.9C25.1,60.8,25.2,60.8,25.2,60.7L25.2,60.7zM30.5,60.7c0.1,0,0.1,-0.1,0.1,-0.1h0.1c0.1,-0.1,0.1,-0.1,0.1,-0.1l0.2,-1.5c0,-0.1,0,-0.1,-0.1,-0.1c-0.1,-0.1,-0.1,-0.1,-0.1,-0.1s-0.1,-0.1,-0.1,-0.1s-0.1,0,-0.2,0h-3.9c-0.1,0,-0.1,0,-0.2,0c-0.1,0,-0.1,0.1,-0.1,0.1c-0.1,0.1,-0.1,0.1,-0.1,0.1c-0.1,0.1,-0.1,0.1,-0.1,0.1l-0.2,1.5c0,0.1,0,0.1,0.1,0.1c0.1,0.1,0.1,0.1,0.1,0.1c0.1,0.1,0.1,0.1,0.1,0.1s0.1,0,0.2,0h3.9C30.3,60.8,30.5,60.8,30.5,60.7L30.5,60.7zM31.7,58.9c-0.1,0,-0.1,0.1,-0.1,0.1c-0.1,0.1,-0.1,0.1,-0.1,0.1c-0.1,0.1,-0.1,0.1,-0.1,0.1l-0.2,1.5c0,0.1,0,0.1,0.1,0.1c0.1,0.1,0.1,0.1,0.1,0.1c0.1,0.1,0.1,0.1,0.1,0.1c0.1,0,0.1,0,0.2,0h3.9c0.1,0,0.1,0,0.2,0c0.1,0,0.1,-0.1,0.1,-0.1c0.1,-0.1,0.1,-0.1,0.1,-0.1s0.1,-0.1,0.1,-0.1l0.1,-1.5c0,-0.1,0,-0.1,-0.1,-0.1c-0.1,-0.1,-0.1,-0.1,-0.1,-0.1c-0.1,-0.1,-0.1,-0.1,-0.1,-0.1c-0.1,0,-0.1,0,-0.2,0h-3.9C31.8,58.8,31.7,58.8,31.7,58.9L31.7,58.9zM36.9,58.9c-0.1,0,-0.1,0.1,-0.1,0.1c-0.1,0.1,-0.1,0.1,-0.1,0.1c-0.1,0.1,-0.1,0.1,-0.1,0.1l-0.1,1.5c0,0.1,0,0.1,0.1,0.1c0.1,0.1,0.1,0.1,0.1,0.1c0.1,0.1,0.1,0.1,0.1,0.1c0.1,0,0.1,0,0.2,0h3.9c0.1,0,0.1,0,0.2,0c0.1,0,0.1,-0.1,0.1,-0.1c0.1,-0.1,0.1,-0.1,0.1,-0.1s0.1,-0.1,0.1,-0.1l0.1,-1.5c0,-0.1,0,-0.1,-0.1,-0.1c-0.1,-0.1,-0.1,-0.1,-0.1,-0.1c-0.1,-0.1,-0.1,-0.1,-0.1,-0.1c-0.1,0,-0.1,0,-0.2,0h-3.9C37,58.8,36.9,58.8,36.9,58.9L36.9,58.9zM42.1,58.9c-0.1,0,-0.1,0.1,-0.1,0.1c-0.1,0.1,-0.1,0.1,-0.1,0.1c-0.1,0.1,-0.1,0.1,-0.1,0.1l-0.1,1.5c0,0.1,0,0.1,0.1,0.1c0.1,0.1,0.1,0.1,0.1,0.1c0.1,0.1,0.1,0.1,0.1,0.1c0.1,0,0.1,0,0.2,0h3.9c0.1,0,0.1,0,0.2,0c0.1,0,0.1,-0.1,0.1,-0.1c0.1,-0.1,0.1,-0.1,0.1,-0.1c0.1,-0.1,0.1,-0.1,0.1,-0.1l0.1,-1.5c0,-0.1,0,-0.1,-0.1,-0.1c-0.1,-0.1,-0.1,-0.1,-0.1,-0.1c-0.1,-0.1,-0.1,-0.1,-0.1,-0.1c-0.1,0,-0.1,0,-0.2,0h-3.9C42.2,58.8,42.2,58.8,42.1,58.9L42.1,58.9zM47.3,58.9c-0.1,0,-0.1,0.1,-0.1,0.1c-0.1,0.1,-0.1,0.1,-0.1,0.1c-0.1,0.1,-0.1,0.1,-0.1,0.1l-0.1,1.5c0,0.1,0,0.1,0.1,0.1c0.1,0.1,0.1,0.1,0.1,0.1c0.1,0.1,0.1,0.1,0.1,0.1c0.1,0,0.1,0,0.2,0h3.9c0.1,0,0.1,0,0.2,0s0.1,-0.1,0.1,-0.1c0.1,-0.1,0.1,-0.1,0.1,-0.1c0.1,-0.1,0.1,-0.1,0.1,-0.1l-0.1,-1.5c0,-0.1,0,-0.1,-0.1,-0.1c-0.1,-0.1,-0.1,-0.1,-0.1,-0.1c-0.1,-0.1,-0.1,-0.1,-0.1,-0.1c-0.1,0,-0.1,0,-0.2,0H47.3C47.4,58.8,47.3,58.8,47.3,58.9L47.3,58.9zM52.5,58.9c-0.1,0,-0.1,0.1,-0.1,0.1c-0.1,0.1,-0.1,0.1,-0.1,0.1c-0.1,0.1,-0.1,0.1,-0.1,0.1l0.1,1.5c0,0.1,0,0.1,0.1,0.1h0.1c0.1,0.1,0.1,0.1,0.1,0.1c0.1,0,0.1,0,0.2,0H56.5c0.1,0,0.1,0,0.2,0s0.1,-0.1,0.1,-0.1c0.1,-0.1,0.1,-0.1,0.1,-0.1c0.1,-0.1,0.1,-0.1,0.1,-0.1l-0.1,-1.5c0,-0.1,0,-0.1,-0.1,-0.1c-0.1,-0.1,-0.1,-0.1,-0.1,-0.1c-0.1,-0.1,-0.1,-0.1,-0.1,-0.1c-0.1,0,-0.1,0,-0.2,0h-3.9C52.5,58.8,52.5,58.8,52.5,58.9L52.5,58.9zM57.7,58.9c-0.1,0,-0.1,0.1,-0.1,0.1c-0.1,0.1,-0.1,0.1,-0.1,0.1c-0.1,0,-0.1,0.1,-0.1,0.1l0.1,1.5c0,0.1,0,0.1,0.1,0.1c0.1,0.1,0.1,0.1,0.1,0.1c0.1,0.1,0.1,0.1,0.1,0.1c0.1,0,0.1,0,0.2,0h3.9c0.1,0,0.1,0,0.2,0c0.1,0,0.1,-0.1,0.1,-0.1c0.1,-0.1,0.1,-0.1,0.1,-0.1c0.1,-0.1,0.1,-0.1,0.1,-0.1l-0.1,-1.5c0,-0.1,0,-0.1,-0.1,-0.1c-0.1,-0.1,-0.1,-0.1,-0.1,-0.1c-0.1,-0.1,-0.1,-0.1,-0.1,-0.1c-0.1,0,-0.1,0,-0.2,0h-3.9C57.7,58.8,57.7,58.8,57.7,58.9L57.7,58.9zM62.8,58.9c-0.1,0,-0.1,0.1,-0.1,0.1c-0.1,0.1,-0.1,0.1,-0.1,0.1c-0.1,0.1,-0.1,0.1,-0.1,0.1l0.1,1.5c0,0.1,0,0.1,0.1,0.1c0.1,0.1,0.1,0.1,0.1,0.1c0.1,0.1,0.1,0.1,0.1,0.1c0.1,0,0.1,0,0.2,0h3.9c0.1,0,0.1,0,0.2,0s0.1,-0.1,0.1,-0.1c0.1,-0.1,0.1,-0.1,0.1,-0.1c0.1,-0.1,0.1,-0.1,0.1,-0.1l-0.2,-1.5c0,-0.1,-0.1,-0.1,-0.1,-0.1c-0.1,-0.1,-0.1,-0.1,-0.1,-0.1c-0.1,-0.1,-0.1,-0.1,-0.1,-0.1c-0.1,0,-0.1,0,-0.2,0H63C63,58.8,62.9,58.8,62.8,58.9L62.8,58.9zM68.1,58.9c-0.1,0,-0.1,0.1,-0.1,0.1c-0.1,0.1,-0.1,0.1,-0.1,0.1c-0.1,0,-0.1,0.1,-0.1,0.1l0.2,1.5c0,0.1,0.1,0.1,0.1,0.1c0.1,0.1,0.1,0.1,0.1,0.1c0.1,0.1,0.1,0.1,0.1,0.1c0.1,0,0.1,0,0.2,0H72.3c0.1,0,0.1,0,0.2,0s0.1,-0.1,0.1,-0.1c0.1,-0.1,0.1,-0.1,0.1,-0.1c0.1,0,0.1,-0.1,0.1,-0.1l-0.2,-1.5c0,-0.1,-0.1,-0.1,-0.1,-0.1c-0.1,-0.1,-0.1,-0.1,-0.1,-0.1c-0.1,-0.1,-0.1,-0.1,-0.1,-0.1c-0.1,0,-0.1,0,-0.2,0h-3.9C68.2,58.8,68.1,58.8,68.1,58.9L68.1,58.9zM73.3,58.9c-0.1,0,-0.1,0.1,-0.1,0.1c-0.1,0.1,-0.1,0.1,-0.1,0.1c-0.1,0,-0.1,0.1,-0.1,0.1l0.2,1.5c0,0.1,0.1,0.1,0.1,0.1c0.1,0.1,0.1,0.1,0.1,0.1c0.1,0.1,0.1,0.1,0.1,0.1c0.1,0,0.1,0,0.2,0h3.9c0.1,0,0.1,0,0.2,0s0.1,-0.1,0.1,-0.1c0.1,-0.1,0.1,-0.1,0.1,-0.1c0.1,-0.1,0.1,-0.1,0.1,-0.1l-0.3,-1.5c0,-0.1,-0.1,-0.1,-0.1,-0.1c-0.1,-0.1,-0.1,-0.1,-0.1,-0.1c-0.1,-0.1,-0.1,-0.1,-0.1,-0.1c-0.1,0,-0.1,0,-0.2,0h-3.9C73.4,58.8,73.3,58.8,73.3,58.9L73.3,58.9zM85.5,58.9c-0.1,0,-0.1,0,-0.2,0h-6.7c-0.1,0,-0.1,0,-0.2,0s-0.1,0.1,-0.1,0.1c-0.1,0.1,-0.1,0.1,-0.1,0.1c-0.1,0.1,-0.1,0.1,-0.1,0.1l0.2,1.5c0,0.1,0.1,0.1,0.1,0.1c0.1,0.1,0.1,0.1,0.1,0.1c0.1,0.1,0.1,0.1,0.1,0.1c0.1,0,0.1,0,0.2,0h6.7c0.1,0,0.1,0,0.2,0s0.1,-0.1,0.1,-0.1c0.1,-0.1,0.1,-0.1,0.1,-0.1c0.1,-0.1,0.1,-0.1,0.1,-0.1l-0.3,-1.5c0,-0.1,-0.1,-0.1,-0.1,-0.1c-0.1,-0.1,-0.1,-0.1,-0.1,-0.1C85.5,58.9,85.5,58.9,85.5,58.9L85.5,58.9zM16.7,62.9c0.1,0.1,0.1,0.1,0.1,0.1c0.1,0,0.1,0,0.2,0h4c0.1,0,0.1,0,0.2,0s0.1,-0.1,0.1,-0.1c0.1,-0.1,0.1,-0.1,0.1,-0.1c0.1,-0.1,0.1,-0.1,0.1,-0.1l0.3,-1.5c0,-0.1,0,-0.1,-0.1,-0.1c-0.1,-0.1,-0.1,-0.1,-0.1,-0.1c-0.1,-0.1,-0.1,-0.1,-0.1,-0.1c-0.1,0,-0.1,0,-0.2,0H17.2c-0.1,0,-0.1,0,-0.2,0s-0.1,0.1,-0.1,0.1c-0.1,0.1,-0.1,0.1,-0.1,0.1c-0.1,0.1,-0.1,0.1,-0.1,0.1l-0.3,1.5c0,0.1,0,0.1,0.1,0.1S16.6,62.9,16.7,62.9L16.7,62.9zM7.4,62.9c0.1,0.1,0.1,0.1,0.1,0.1c0.1,0,0.1,0,0.2,0h7.7c0.1,0,0.1,0,0.2,0s0.1,-0.1,0.1,-0.1c0.1,-0.1,0.1,-0.1,0.1,-0.1c0.1,-0.1,0.1,-0.1,0.1,-0.1l0.3,-1.5c0,-0.1,0,-0.1,-0.1,-0.1c-0.1,-0.1,-0.1,-0.1,-0.1,-0.1c-0.1,-0.1,-0.1,-0.1,-0.1,-0.1c-0.1,0,-0.1,0,-0.2,0h-7.6c-0.1,0,-0.1,0,-0.2,0c-0.1,0,-0.1,0.1,-0.1,0.1c-0.1,0.1,-0.1,0.1,-0.1,0.1c-0.1,0.1,-0.1,0.1,-0.1,0.1l-0.4,1.5c0,0.1,0,0.1,0,0.1C7.4,62.9,7.4,62.9,7.4,62.9L7.4,62.9zM22,62.9c0.1,0.1,0.1,0.1,0.1,0.1c0.1,0,0.1,0,0.2,0h4c0.1,0,0.1,0,0.2,0c0.1,0,0.1,-0.1,0.1,-0.1c0.1,-0.1,0.1,-0.1,0.1,-0.1c0.1,-0.1,0.1,-0.1,0.1,-0.1l0.2,-1.5c0,-0.1,0,-0.1,-0.1,-0.1c-0.1,-0.1,-0.1,-0.1,-0.1,-0.1c-0.1,-0.1,-0.1,-0.1,-0.1,-0.1s-0.1,0,-0.2,0H22.5c-0.1,0,-0.1,0,-0.2,0c-0.1,0,-0.1,0.1,-0.1,0.1c-0.1,0.1,-0.1,0.1,-0.1,0.1c-0.1,0.1,-0.1,0.1,-0.1,0.1l-0.3,1.5c0,0.1,0,0.1,0.1,0.1C21.9,62.9,21.9,62.9,22,62.9zM27.3,62.9c0.1,0.1,0.1,0.1,0.1,0.1c0.1,0,0.1,0,0.2,0h4c0.1,0,0.1,0,0.2,0c0.1,0,0.1,-0.1,0.1,-0.1c0.1,-0.1,0.1,-0.1,0.1,-0.1c0.1,-0.1,0.1,-0.1,0.1,-0.1l0.2,-1.5c0,-0.1,0,-0.1,-0.1,-0.1c-0.1,-0.1,-0.1,-0.1,-0.1,-0.1c-0.1,-0.1,-0.1,-0.1,-0.1,-0.1c-0.1,0,-0.1,0,-0.2,0h-4c-0.1,0,-0.1,0,-0.2,0c-0.1,0,-0.1,0.1,-0.1,0.1c-0.1,0.1,-0.1,0.1,-0.1,0.1c-0.1,0.1,-0.1,0.1,-0.1,0.1l-0.2,1.5c0,0.1,0,0.1,0.1,0.1C27.2,62.9,27.3,62.9,27.3,62.9L27.3,62.9zM37,62.9c0.1,0,0.1,-0.1,0.1,-0.1c0.1,-0.1,0.1,-0.1,0.1,-0.1c0.1,-0.1,0.1,-0.1,0.1,-0.1l0.1,-1.5c0,-0.1,0,-0.1,-0.1,-0.1c-0.1,-0.1,-0.1,-0.1,-0.1,-0.1c-0.1,-0.1,-0.1,-0.1,-0.1,-0.1c-0.1,0,-0.1,0,-0.2,0h-4c-0.1,0,-0.1,0,-0.2,0s-0.1,0.1,-0.1,0.1c-0.1,0.1,-0.1,0.1,-0.1,0.1c-0.1,0.1,-0.1,0.1,-0.1,0.1l-0.2,1.5c0,0.1,0,0.1,0.1,0.1c0.1,0.1,0.1,0.1,0.1,0.1c0.1,0.1,0.1,0.1,0.1,0.1c0.1,0,0.1,0,0.2,0h4C36.9,63,37,63,37,62.9zM42.4,62.9c0.1,0,0.1,-0.1,0.1,-0.1c0.1,-0.1,0.1,-0.1,0.1,-0.1c0.1,-0.1,0.1,-0.1,0.1,-0.1l0.1,-1.5c0,-0.1,0,-0.1,-0.1,-0.1c-0.1,-0.1,-0.1,-0.1,-0.1,-0.1c-0.1,-0.1,-0.1,-0.1,-0.1,-0.1c-0.1,0,-0.1,0,-0.2,0h-4c-0.1,0,-0.1,0,-0.2,0c-0.1,0,-0.1,0.1,-0.1,0.1c-0.1,0.1,-0.1,0.1,-0.1,0.1c-0.1,0.1,-0.1,0.1,-0.1,0.1l-0.1,1.5c0,0.1,0,0.1,0.1,0.1c0.1,0.1,0.1,0.1,0.1,0.1c0.1,0.1,0.1,0.1,0.1,0.1c0.1,0,0.1,0,0.2,0H42.1C42.3,63,42.3,63,42.4,62.9L42.4,62.9zM47.7,62.9c0.1,0,0.1,-0.1,0.1,-0.1c0.1,-0.1,0.1,-0.1,0.1,-0.1c0.1,-0.1,0.1,-0.1,0.1,-0.1v-1.5c0,-0.1,0,-0.1,-0.1,-0.1c-0.1,-0.1,-0.1,-0.1,-0.1,-0.1c-0.1,-0.1,-0.1,-0.1,-0.1,-0.1c-0.1,0,-0.1,0,-0.2,0H43.5c-0.1,0,-0.1,0,-0.2,0c-0.1,0,-0.1,0.1,-0.1,0.1c-0.1,0.1,-0.1,0.1,-0.1,0.1c-0.1,0.1,-0.1,0.1,-0.1,0.1l-0.1,1.5c0,0.1,0,0.1,0.1,0.1c0.1,0.1,0.1,0.1,0.1,0.1c0.1,0.1,0.1,0.1,0.1,0.1c0.1,0,0.1,0,0.2,0h4C47.6,63,47.7,63,47.7,62.9L47.7,62.9zM53,62.9c0.1,0,0.1,-0.1,0.1,-0.1c0.1,-0.1,0.1,-0.1,0.1,-0.1c0.1,-0.1,0.1,-0.1,0.1,-0.1l-0.1,-1.5c0,-0.1,0,-0.1,-0.1,-0.1c-0.1,-0.1,-0.1,-0.1,-0.1,-0.1c-0.1,-0.1,-0.1,-0.1,-0.1,-0.1c-0.1,0,-0.1,0,-0.2,0h-4c-0.1,0,-0.1,0,-0.2,0s-0.1,0.1,-0.1,0.1c-0.1,0.1,-0.1,0.1,-0.1,0.1c-0.1,0.1,-0.1,0.1,-0.1,0.1v1.5c0,0.1,0,0.1,0.1,0.1c0.1,0.1,0.1,0.1,0.1,0.1c0.1,0.1,0.1,0.1,0.1,0.1c0.1,0,0.1,0,0.2,0h4C52.9,63,52.9,63,53,62.9L53,62.9zM58.3,62.9c0.1,0,0.1,-0.1,0.1,-0.1c0.1,-0.1,0.1,-0.1,0.1,-0.1c0.1,-0.1,0.1,-0.1,0.1,-0.1l-0.1,-1.5c0,-0.1,0,-0.1,-0.1,-0.1c-0.1,-0.1,-0.1,-0.1,-0.1,-0.1c-0.1,-0.1,-0.1,-0.1,-0.1,-0.1c-0.1,0,-0.1,0,-0.2,0h-4c-0.1,0,-0.1,0,-0.2,0s-0.1,0.1,-0.1,0.1c-0.1,0.1,-0.1,0.1,-0.1,0.1c-0.1,0.1,-0.1,0.1,-0.1,0.1l0.1,1.5c0,0.1,0,0.1,0.1,0.1c0.1,0.1,0.1,0.1,0.1,0.1c0.1,0.1,0.1,0.1,0.1,0.1c0.1,0,0.1,0,0.2,0h4C58.2,63,58.3,63,58.3,62.9L58.3,62.9zM63.6,62.9c0.1,0,0.1,-0.1,0.1,-0.1c0.1,-0.1,0.1,-0.1,0.1,-0.1c0.1,-0.1,0.1,-0.1,0.1,-0.1l-0.1,-1.5c0,-0.1,0,-0.1,-0.1,-0.1c-0.1,-0.1,-0.1,-0.1,-0.1,-0.1c-0.1,-0.1,-0.1,-0.1,-0.1,-0.1c-0.1,0,-0.1,0,-0.2,0h-4c-0.1,0,-0.1,0,-0.2,0s-0.1,0.1,-0.1,0.1c-0.1,0.1,-0.1,0.1,-0.1,0.1c-0.1,0.1,-0.1,0.1,-0.1,0.1l0.1,1.5c0,0.1,0,0.1,0.1,0.1c0.1,0.1,0.1,0.1,0.1,0.1c0.1,0.1,0.1,0.1,0.1,0.1c0.1,0,0.1,0,0.2,0H63.5C63.5,63,63.6,63,63.6,62.9zM68.9,62.9c0.1,0,0.1,-0.1,0.1,-0.1c0.1,-0.1,0.1,-0.1,0.1,-0.1c0.1,-0.1,0.1,-0.1,0.1,-0.1l-0.2,-1.5c0,-0.1,-0.1,-0.1,-0.1,-0.1c-0.1,-0.1,-0.1,-0.1,-0.1,-0.1c-0.1,-0.1,-0.1,-0.1,-0.1,-0.1c-0.1,0,-0.1,0,-0.2,0h-4c-0.1,0,-0.1,0,-0.2,0s-0.1,0.1,-0.1,0.1c-0.1,0.1,-0.1,0.1,-0.1,0.1c-0.1,0.1,-0.1,0.1,-0.1,0.1l0.1,1.5c0,0.1,0.1,0.1,0.1,0.1c0.1,0.1,0.1,0.1,0.1,0.1c0.1,0.1,0.1,0.1,0.1,0.1c0.1,0,0.1,0,0.2,0h4C68.9,63,68.9,63,68.9,62.9L68.9,62.9zM74.3,62.9c0.1,0,0.1,-0.1,0.1,-0.1c0.1,-0.1,0.1,-0.1,0.1,-0.1c0.1,-0.1,0.1,-0.1,0.1,-0.1l-0.2,-1.5c0,-0.1,-0.1,-0.1,-0.1,-0.1c-0.1,-0.1,-0.1,-0.1,-0.1,-0.1c-0.1,-0.1,-0.1,-0.1,-0.1,-0.1c-0.1,0,-0.1,0,-0.2,0h-4c-0.1,0,-0.1,0,-0.2,0s-0.1,0.1,-0.1,0.1c-0.1,0.1,-0.1,0.1,-0.1,0.1c-0.1,0.1,-0.1,0.1,-0.1,0.1l0.2,1.5c0,0.1,0.1,0.1,0.1,0.1c0.1,0.1,0.1,0.1,0.1,0.1c0.1,0.1,0.1,0.1,0.1,0.1c0.1,0,0.1,0,0.2,0H74.1C74.2,63,74.2,63,74.3,62.9L74.3,62.9zM86.4,62.9c0.1,0,0.1,-0.1,0.1,-0.1c0.1,-0.1,0.1,-0.1,0.1,-0.1c0.1,-0.1,0.1,-0.1,0.1,-0.1l-0.4,-1.5c0,-0.1,-0.1,-0.1,-0.1,-0.1c-0.1,-0.1,-0.1,-0.1,-0.1,-0.1c-0.1,-0.1,-0.1,-0.1,-0.1,-0.1c-0.1,0,-0.1,0,-0.2,0h-10.6c-0.1,0,-0.1,0,-0.2,0s-0.1,0.1,-0.1,0.1c-0.1,0.1,-0.1,0.1,-0.1,0.1c-0.1,0.1,-0.1,0.1,-0.1,0.1l0.2,1.5c0,0.1,0.1,0.1,0.1,0.1c0.1,0.1,0.1,0.1,0.1,0.1c0.1,0.1,0.1,0.1,0.1,0.1c0.1,0,0.1,0,0.2,0h10.7C86.2,63,86.3,63,86.4,62.9L86.4,62.9zM24.4,63.4c-0.1,-0.1,-0.1,-0.1,-0.1,-0.1c-0.1,-0.1,-0.1,-0.1,-0.1,-0.1s-0.1,0,-0.2,0h-4c-0.1,0,-0.1,0,-0.2,0s-0.1,0.1,-0.1,0.1c-0.1,0.1,-0.1,0.1,-0.1,0.1c-0.1,0,-0.1,0.1,-0.1,0.1l-0.3,1.6c0,0.1,0,0.1,0.1,0.1c0.1,0.1,0.1,0.1,0.1,0.1c0.1,0.1,0.1,0.1,0.1,0.1c0.1,0,0.1,0,0.2,0h4.1c0.1,0,0.1,0,0.2,0c0.1,0,0.1,-0.1,0.1,-0.1c0.1,-0.1,0.1,-0.1,0.1,-0.1c0.1,-0.1,0.1,-0.1,0.1,-0.1l0.2,-1.6C24.4,63.4,24.4,63.4,24.4,63.4zM18.7,65l0.3,-1.6c0,-0.1,0,-0.1,-0.1,-0.1c-0.1,-0.1,-0.1,-0.1,-0.1,-0.1c-0.1,-0.1,-0.1,-0.1,-0.1,-0.1c-0.1,0,-0.1,0,-0.2,0H7.7c-0.1,0,-0.1,0,-0.2,0s-0.1,0.1,-0.2,0.1c-0.1,0.1,-0.1,0.1,-0.1,0.1c-0.1,0.1,-0.1,0.1,-0.1,0.1l-0.4,1.6c0,0.1,0,0.1,0,0.1c0,0.1,0.1,0.1,0.1,0.1c0.1,0.1,0.1,0.1,0.1,0.1s0.1,0,0.2,0h11c0.1,0,0.1,0,0.2,0s0.1,-0.1,0.2,-0.1c0.1,-0.1,0.1,-0.1,0.1,-0.1C18.7,65.1,18.7,65,18.7,65L18.7,65zM29.7,63.3c-0.1,-0.1,-0.1,-0.1,-0.1,-0.1c-0.1,0,-0.1,0,-0.2,0h-4c-0.1,0,-0.1,0,-0.2,0c-0.1,0,-0.1,0.1,-0.1,0.1c-0.1,0.1,-0.1,0.1,-0.1,0.1c-0.1,0.1,-0.1,0.1,-0.1,0.1l-0.2,1.6c0,0.1,0,0.1,0.1,0.1c0.1,0.1,0.1,0.1,0.1,0.1c0.1,0.1,0.1,0.1,0.1,0.1c0.1,0,0.1,0,0.2,0h4.1c0.1,0,0.1,0,0.2,0c0.1,0,0.1,-0.1,0.1,-0.1c0.1,-0.1,0.1,-0.1,0.1,-0.1c0.1,-0.1,0.1,-0.1,0.1,-0.1l0.2,-1.6c0,-0.1,0,-0.1,-0.1,-0.1C29.7,63.3,29.7,63.3,29.7,63.3L29.7,63.3zM23.6,65.6c-0.1,-0.1,-0.1,-0.1,-0.1,-0.1c-0.1,0,-0.1,0,-0.2,0h-4c-0.1,0,-0.1,0,-0.2,0c-0.1,0,-0.1,0.1,-0.2,0.1c-0.1,0.1,-0.1,0.1,-0.1,0.1c-0.1,0.1,-0.1,0.1,-0.1,0.1l-0.3,1.7c0,0.1,0,0.1,0.1,0.1c0.1,0.1,0.1,0.1,0.1,0.1c0.1,0.1,0.1,0.1,0.1,0.1c0.1,0,0.1,0,0.2,0h4.1c0.1,0,0.1,0,0.2,0c0.1,0,0.1,-0.1,0.2,-0.1c0.1,-0.1,0.1,-0.1,0.1,-0.1c0.1,-0.1,0.1,-0.1,0.1,-0.1l0.3,-1.7c0,-0.1,0,-0.1,-0.1,-0.1C23.7,65.6,23.6,65.6,23.6,65.6L23.6,65.6zM17.9,65.6c-0.1,-0.1,-0.1,-0.1,-0.1,-0.1c-0.1,0,-0.1,0,-0.2,0H13.6c-0.1,0,-0.1,0,-0.2,0c-0.1,0,-0.1,0.1,-0.2,0.1c-0.1,0.1,-0.1,0.1,-0.1,0.1c-0.1,0.1,-0.1,0.1,-0.1,0.1l-0.3,1.7c0,0.1,0,0.1,0.1,0.1c0.1,0.1,0.1,0.1,0.1,0.1c0.1,0.1,0.1,0.1,0.1,0.1c0.1,0,0.1,0,0.2,0h4.1c0.1,0,0.1,0,0.2,0c0.1,0,0.1,-0.1,0.2,-0.1c0.1,-0.1,0.1,-0.1,0.1,-0.1c0.1,-0.1,0.1,-0.1,0.1,-0.1l0.3,-1.7c0,-0.1,0,-0.1,-0.1,-0.1C18,65.6,18,65.6,17.9,65.6zM29.2,65.6c-0.1,-0.1,-0.1,-0.1,-0.1,-0.1c-0.1,0,-0.1,0,-0.2,0h-4.1c-0.1,0,-0.1,0,-0.2,0c-0.1,0,-0.1,0.1,-0.1,0.1c-0.1,0.1,-0.1,0.1,-0.1,0.1c-0.1,0.1,-0.1,0.1,-0.1,0.1l-0.2,1.7c0,0.1,0,0.1,0.1,0.1c0.1,0.1,0.1,0.1,0.1,0.1c0.1,0.1,0.1,0.1,0.1,0.1c0.1,0,0.1,0,0.2,0h4.1c0.1,0,0.1,0,0.2,0c0.1,0,0.1,-0.1,0.1,-0.1c0.1,-0.1,0.1,-0.1,0.1,-0.1c0.1,-0.1,0.1,-0.1,0.1,-0.1l0.2,-1.7c0,-0.1,0,-0.1,-0.1,-0.1C29.3,65.6,29.3,65.6,29.2,65.6L29.2,65.6zM30.3,65.1c0.1,0.1,0.1,0.1,0.1,0.1c0.1,0,0.1,0,0.2,0h4c0.1,0,0.1,0,0.2,0c0.1,0,0.1,-0.1,0.1,-0.1c0.1,-0.1,0.1,-0.1,0.1,-0.1c0.1,-0.1,0.1,-0.1,0.1,-0.1l0.1,-1.6c0,-0.1,0,-0.1,-0.1,-0.1c-0.1,-0.1,-0.1,-0.1,-0.1,-0.1c-0.1,-0.1,-0.1,-0.1,-0.1,-0.1c-0.1,0,-0.1,0,-0.2,0h-4c-0.1,0,-0.1,0,-0.2,0c-0.1,0,-0.1,0.1,-0.1,0.1c-0.1,0.1,-0.1,0.1,-0.1,0.1c-0.1,0.1,-0.1,0.1,-0.1,0.1l-0.2,1.6c0,0.1,0,0.1,0.1,0.1C30.1,65.1,30.2,65.1,30.3,65.1L30.3,65.1zM35.6,65.1c0.1,0.1,0.1,0.1,0.1,0.1c0.1,0,0.1,0,0.2,0h4.1c0.1,0,0.1,0,0.2,0c0.1,0,0.1,-0.1,0.1,-0.1c0.1,-0.1,0.1,-0.1,0.1,-0.1c0.1,-0.1,0.1,-0.1,0.1,-0.1l0.1,-1.6c0,-0.1,0,-0.1,-0.1,-0.1c-0.1,-0.1,-0.1,-0.1,-0.1,-0.1s-0.1,-0.1,-0.1,-0.1c-0.1,0,-0.1,0,-0.2,0h-4c-0.1,0,-0.1,0,-0.2,0c-0.1,0,-0.1,0.1,-0.1,0.1c-0.1,0.1,-0.1,0.1,-0.1,0.1c-0.1,0.1,-0.1,0.1,-0.1,0.1l-0.1,1.6c0,0.1,0,0.1,0.1,0.1C35.6,65.1,35.6,65.1,35.6,65.1L35.6,65.1zM41,65.1c0.1,0.1,0.1,0.1,0.1,0.1c0.1,0,0.1,0,0.2,0h4.1c0.1,0,0.1,0,0.2,0s0.1,-0.1,0.1,-0.1c0.1,-0.1,0.1,-0.1,0.1,-0.1c0.1,-0.1,0.1,-0.1,0.1,-0.1l0.1,-1.6c0,-0.1,0,-0.1,-0.1,-0.1c-0.1,-0.1,-0.1,-0.1,-0.1,-0.1c-0.1,-0.1,-0.1,-0.1,-0.1,-0.1c-0.1,0,-0.1,0,-0.2,0h-4c-0.1,0,-0.1,0,-0.2,0c-0.1,0,-0.1,0.1,-0.1,0.1c-0.1,0.1,-0.1,0.1,-0.1,0.1c-0.1,0.1,-0.1,0.1,-0.1,0.1l-0.1,1.6c0,0.1,0,0.1,0.1,0.1C40.9,65.1,40.9,65.1,41,65.1zM46.4,65.1c0.1,0.1,0.1,0.1,0.1,0.1c0.1,0,0.1,0,0.2,0h4.1c0.1,0,0.1,0,0.2,0s0.1,-0.1,0.1,-0.1c0.1,-0.1,0.1,-0.1,0.1,-0.1c0.1,-0.1,0.1,-0.1,0.1,-0.1l-0.1,-1.6c0,-0.1,0,-0.1,-0.1,-0.1c-0.1,-0.1,-0.1,-0.1,-0.1,-0.1c-0.1,-0.1,-0.1,-0.1,-0.1,-0.1c-0.1,0,-0.1,0,-0.2,0h-4c-0.1,0,-0.1,0,-0.2,0s-0.1,0.1,-0.1,0.1c-0.1,0.1,-0.1,0.1,-0.1,0.1c-0.1,0.1,-0.1,0.1,-0.1,0.1l-0.1,1.6c0,0.1,0,0.1,0.1,0.1S46.3,65.1,46.4,65.1L46.4,65.1zM51.7,65.1c0.1,0.1,0.1,0.1,0.1,0.1c0,0.1,0.1,0.1,0.1,0.1c0.1,0,0.1,0,0.2,0h4.1c0.1,0,0.1,0,0.2,0s0.1,-0.1,0.1,-0.1c0.1,-0.1,0.1,-0.1,0.1,-0.1c0.1,-0.1,0.1,-0.1,0.1,-0.1l-0.1,-1.6c0,-0.1,0,-0.1,-0.1,-0.1c-0.1,-0.1,-0.1,-0.1,-0.1,-0.1c-0.1,-0.1,-0.1,-0.1,-0.1,-0.1c-0.1,0,-0.1,0,-0.2,0h-4c-0.1,0,-0.1,0,-0.2,0s-0.1,0.1,-0.1,0.1c-0.1,0.1,-0.1,0.1,-0.1,0.1c-0.1,0.1,-0.1,0.1,-0.1,0.1l0.1,1.6C51.6,65,51.7,65.1,51.7,65.1L51.7,65.1zM57.1,65.1c0.1,0.1,0.1,0.1,0.1,0.1c0.1,0.1,0.1,0.1,0.1,0.1c0.1,0,0.1,0,0.2,0h4c0.1,0,0.1,0,0.2,0s0.1,-0.1,0.1,-0.1c0.1,-0.1,0.1,-0.1,0.1,-0.1c0.1,-0.1,0.1,-0.1,0.1,-0.1l-0.1,-1.6c0,-0.1,0,-0.1,-0.1,-0.1c-0.1,-0.1,-0.1,-0.1,-0.1,-0.1c-0.1,-0.1,-0.1,-0.1,-0.1,-0.1c-0.1,0,-0.1,0,-0.2,0h-4c-0.1,0,-0.1,0,-0.2,0s-0.1,0.1,-0.1,0.1c-0.1,0.1,-0.1,0.1,-0.1,0.1c-0.1,0.1,-0.1,0.1,-0.1,0.1l0.1,1.6C57,65,57,65.1,57.1,65.1L57.1,65.1L57.1,65.1zM62.4,65.1c0.1,0.1,0.1,0.1,0.1,0.1c0.1,0.1,0.1,0.1,0.1,0.1c0.1,0,0.1,0,0.2,0h4.1c0.1,0,0.1,0,0.2,0s0.1,-0.1,0.1,-0.1c0.1,-0.1,0.1,-0.1,0.1,-0.1c0.1,-0.1,0.1,-0.1,0.1,-0.1l-0.2,-1.6c0,-0.1,-0.1,-0.1,-0.1,-0.1c-0.1,-0.1,-0.1,-0.1,-0.1,-0.1c-0.1,-0.1,-0.1,-0.1,-0.1,-0.1c-0.1,0,-0.1,0,-0.2,0h-4c-0.1,0,-0.1,0,-0.2,0s-0.1,0.1,-0.1,0.1s-0.1,0.1,-0.1,0.1c-0.1,0.1,-0.1,0.1,-0.1,0.1l0.1,1.6C62.4,65,62.4,65.1,62.4,65.1zM67.8,65.1c0.1,0.1,0.1,0.1,0.1,0.1c0.1,0.1,0.1,0.1,0.1,0.1c0.1,0,0.1,0,0.2,0h4c0.1,0,0.1,0,0.2,0s0.1,-0.1,0.1,-0.1c0.1,-0.1,0.1,-0.1,0.1,-0.1c0.1,-0.1,0.1,-0.1,0.1,-0.1l-0.2,-1.6c0,-0.1,-0.1,-0.1,-0.1,-0.1c-0.1,-0.1,-0.1,-0.1,-0.1,-0.1c-0.1,-0.1,-0.1,-0.1,-0.1,-0.1c-0.1,0,-0.1,0,-0.2,0h-4c-0.1,0,-0.1,0,-0.2,0s-0.1,0.1,-0.1,0.1c-0.1,0.1,-0.1,0.1,-0.1,0.1c-0.1,0.1,-0.1,0.1,-0.1,0.1l0.2,1.6C67.8,65,67.8,65.1,67.8,65.1L67.8,65.1zM73.3,65.1c0.1,0.1,0.1,0.1,0.1,0.1c0.1,0.1,0.1,0.1,0.1,0.1c0.1,0,0.1,0,0.2,0h7.4c0.1,0,0.1,0,0.2,0s0.1,-0.1,0.1,-0.1c0.1,0,0.1,-0.1,0.1,-0.1c0.1,-0.1,0.1,-0.1,0.1,-0.1l-0.3,-1.6c0,-0.1,-0.1,-0.1,-0.1,-0.1c-0.1,-0.1,-0.1,-0.1,-0.1,-0.1c-0.1,-0.1,-0.1,-0.1,-0.1,-0.1c-0.1,0,-0.1,0,-0.2,0h-7.4c-0.1,0,-0.1,0,-0.2,0s-0.1,0.1,-0.1,0.1c-0.1,0.1,-0.1,0.1,-0.1,0.1c-0.1,0.1,-0.1,0.1,-0.1,0.1l0.2,1.6C73.2,65,73.2,65.1,73.3,65.1L73.3,65.1zM90.7,58.8h-3.9c-0.1,0,-0.1,0,-0.2,0s-0.1,0.1,-0.1,0.1c-0.1,0.1,-0.1,0.1,-0.1,0.1c-0.1,0.1,-0.1,0.1,-0.1,0.1l0.3,1.5c0,0.1,0.1,0.1,0.1,0.1c0.1,0.1,0.1,0.1,0.1,0.1c0.1,0.1,0.1,0.1,0.1,0.1c0.1,0,0.1,0,0.2,0h3.9c0.1,0,0.1,0,0.2,0c0.1,0,0.1,-0.1,0.1,-0.1c0.1,-0.1,0.1,-0.1,0.1,-0.1c0,-0.1,0.1,-0.1,0,-0.1l-0.4,-1.5c0,-0.1,-0.1,-0.1,-0.1,-0.1c-0.1,-0.1,-0.1,-0.1,-0.1,-0.1c-0.1,-0.1,-0.1,-0.1,-0.1,-0.1S90.7,58.8,90.7,58.8L90.7,58.8zM91.3,61.1c-0.1,0,-0.1,0,-0.2,0h-4c-0.1,0,-0.1,0,-0.2,0c-0.1,0,-0.1,0.1,-0.1,0.1c-0.1,0.1,-0.1,0.1,-0.1,0.1c-0.1,0.1,-0.1,0.1,-0.1,0.1l0.3,1.5c0,0.1,0.1,0.1,0.1,0.1c0.1,0.1,0.1,0.1,0.1,0.1c0.1,0.1,0.1,0.1,0.2,0.1s0.1,0,0.2,0h4c0.1,0,0.1,0,0.2,0c0.1,0,0.1,-0.1,0.1,-0.1c0.1,-0.1,0.1,-0.1,0.1,-0.1c0.1,-0.1,0.1,-0.1,0,-0.1l-0.4,-1.5c0,-0.1,-0.1,-0.1,-0.1,-0.1c-0.1,-0.1,-0.1,-0.1,-0.1,-0.1C91.3,61.1,91.3,61.1,91.3,61.1L91.3,61.1zM88.1,65.2H92.1c0.1,0,0.1,0,0.2,0c0.1,0,0.1,-0.1,0.1,-0.1c0.1,-0.1,0.1,-0.1,0.1,-0.1c0.1,-0.1,0.1,-0.1,0,-0.1l-0.4,-1.6c0,-0.1,-0.1,-0.1,-0.1,-0.1c-0.1,-0.1,-0.1,-0.1,-0.1,-0.1c-0.1,-0.1,-0.1,-0.1,-0.2,-0.1c-0.1,0,-0.1,0,-0.2,0H87.6c-0.1,0,-0.1,0,-0.2,0s-0.1,0.1,-0.1,0.1c-0.1,0.1,-0.1,0.1,-0.1,0.1c-0.1,0.1,-0.1,0.1,-0.1,0.1l0.3,1.6c0,0.1,0.1,0.1,0.1,0.1c0.1,0.1,0.1,0.1,0.1,0.1c0.1,0.1,0.1,0.1,0.2,0.1S88,65.2,88.1,65.2L88.1,65.2zM93,67.3l-0.4,-1.7c0,-0.1,-0.1,-0.1,-0.1,-0.1c-0.1,-0.1,-0.1,-0.1,-0.1,-0.1c-0.1,-0.1,-0.1,-0.1,-0.2,-0.1c-0.1,0,-0.1,0,-0.2,0h-4.1c-0.1,0,-0.1,0,-0.2,0s-0.1,0.1,-0.1,0.1c-0.1,0.1,-0.1,0.1,-0.1,0.1c-0.1,0.1,-0.1,0.1,-0.1,0.1l0.3,1.7c0,0.1,0.1,0.1,0.1,0.1c0.1,0.1,0.1,0.1,0.1,0.1c0.1,0.1,0.1,0.1,0.2,0.1s0.1,0,0.2,0H92.6c0.1,0,0.1,0,0.2,0c0.1,0,0.1,-0.1,0.1,-0.1c0.1,-0.1,0.1,-0.1,0.1,-0.1C93,67.4,93,67.4,93,67.3zM82.4,65.2c0.1,0,0.1,0,0.2,0h4c0.1,0,0.1,0,0.2,0s0.1,-0.1,0.1,-0.1c0.1,-0.1,0.1,-0.1,0.1,-0.1c0.1,-0.1,0.1,-0.1,0.1,-0.1l-0.3,-1.6c0,-0.1,-0.1,-0.1,-0.1,-0.1c-0.1,-0.1,-0.1,-0.1,-0.1,-0.1c-0.1,-0.1,-0.1,-0.1,-0.1,-0.1c-0.1,0,-0.1,0,-0.2,0h-4c-0.1,0,-0.1,0,-0.2,0s-0.1,0.1,-0.1,0.1c-0.1,0.1,-0.1,0.1,-0.1,0.1c-0.1,0.1,-0.1,0.1,-0.1,0.1l0.3,1.6c0,0.1,0.1,0.1,0.1,0.1c0.1,0.1,0.1,0.1,0.1,0.1C82.3,65.1,82.4,65.1,82.4,65.2zM87.1,65.6c-0.1,-0.1,-0.1,-0.1,-0.1,-0.1c-0.1,-0.1,-0.1,-0.1,-0.2,-0.1c-0.1,0,-0.1,0,-0.2,0h-4c-0.1,0,-0.1,0,-0.2,0s-0.1,0.1,-0.1,0.1c-0.1,0.1,-0.1,0.1,-0.1,0.1c-0.1,0.1,-0.1,0.1,-0.1,0.1l0.3,1.7c0,0.1,0.1,0.1,0.1,0.1c0.1,0.1,0.1,0.1,0.1,0.1c0.1,0.1,0.1,0.1,0.2,0.1s0.1,0,0.2,0h4.1c0.1,0,0.1,0,0.2,0s0.1,-0.1,0.1,-0.1c0.1,-0.1,0.1,-0.1,0.1,-0.1c0.1,-0.1,0.1,-0.1,0.1,-0.1l-0.3,-1.7C87.1,65.6,87.1,65.6,87.1,65.6L87.1,65.6zM81.5,65.6c-0.1,-0.1,-0.1,-0.1,-0.1,-0.1c-0.1,-0.1,-0.1,-0.1,-0.2,-0.1s-0.1,0,-0.2,0h-4c-0.1,0,-0.1,0,-0.2,0s-0.1,0.1,-0.1,0.1c-0.1,0.1,-0.1,0.1,-0.1,0.1c-0.1,0.1,-0.1,0.1,-0.1,0.1l0.2,1.7c0,0.1,0.1,0.1,0.1,0.1c0.1,0.1,0.1,0.1,0.1,0.1c0.1,0.1,0.1,0.1,0.2,0.1s0.1,0,0.2,0h4.1c0.1,0,0.1,0,0.2,0s0.1,-0.1,0.1,-0.1c0.1,-0.1,0.1,-0.1,0.1,-0.1c0.1,0,0.1,-0.1,0.1,-0.1l-0.3,-1.7C81.5,65.6,81.5,65.6,81.5,65.6L81.5,65.6L81.5,65.6zM69.2,65.6c-0.1,-0.1,-0.1,-0.1,-0.1,-0.1c-0.1,-0.1,-0.1,-0.1,-0.1,-0.1c-0.1,0,-0.1,0,-0.2,0h-4.1c-0.1,0,-0.1,0,-0.2,0s-0.1,0.1,-0.1,0.1c-0.1,0.1,-0.1,0.1,-0.1,0.1c-0.1,0.1,-0.1,0.1,-0.1,0.1l0.2,1.7c0,0.1,0.1,0.1,0.1,0.1c0.1,0.1,0.1,0.1,0.1,0.1c0.1,0.1,0.1,0.1,0.1,0.1c0.1,0,0.1,0,0.2,0H69c0.1,0,0.1,0,0.2,0s0.1,-0.1,0.1,-0.1c0.1,-0.1,0.1,-0.1,0.1,-0.1c0.1,-0.1,0.1,-0.1,0.1,-0.1l-0.2,-1.7C69.3,65.6,69.3,65.6,69.2,65.6L69.2,65.6zM63.7,65.6c-0.1,-0.1,-0.1,-0.1,-0.1,-0.1c-0.1,-0.1,-0.1,-0.1,-0.1,-0.1c-0.1,0,-0.1,0,-0.2,0h-4.1c-0.1,0,-0.1,0,-0.2,0s-0.1,0.1,-0.1,0.1c-0.1,0.1,-0.1,0.1,-0.1,0.1c-0.1,0.1,-0.1,0.1,-0.1,0.1l0.1,1.7c0,0.1,0,0.1,0.1,0.1c0.1,0.1,0.1,0.1,0.1,0.1c0.1,0.1,0.1,0.1,0.1,0.1c0.1,0,0.1,0,0.2,0h4.1c0.1,0,0.1,0,0.2,0s0.1,-0.1,0.1,-0.1c0.1,-0.1,0.1,-0.1,0.1,-0.1c0.1,-0.1,0.1,-0.1,0.1,-0.1l-0.1,-1.7C63.7,65.6,63.7,65.6,63.7,65.6L63.7,65.6zM58,65.6c-0.1,-0.1,-0.1,-0.1,-0.1,-0.1c-0.1,-0.1,-0.1,-0.1,-0.1,-0.1c-0.1,0,-0.1,0,-0.2,0H30.5c-0.1,0,-0.1,0,-0.2,0c-0.1,0,-0.1,0.1,-0.1,0.1c-0.1,0.1,-0.1,0.1,-0.1,0.1c-0.1,0.1,-0.1,0.1,-0.1,0.1l-0.2,1.7c0,0.1,0,0.1,0.1,0.1c0.1,0.1,0.1,0.1,0.1,0.1c0.1,0.1,0.1,0.1,0.1,0.1c0.1,0,0.1,0,0.2,0h27.5c0.1,0,0.1,0,0.2,0s0.1,-0.1,0.1,-0.1c0.1,-0.1,0.1,-0.1,0.1,-0.1c0.1,-0.1,0.1,-0.1,0.1,-0.1l-0.1,-1.7C58.1,65.6,58.1,65.6,58,65.6L58,65.6zM12.3,65.6c-0.1,-0.1,-0.1,-0.1,-0.1,-0.1c-0.1,0,-0.1,0,-0.2,0H7c-0.1,0,-0.1,0,-0.2,0c-0.1,0,-0.1,0.1,-0.2,0.1c-0.1,0.1,-0.1,0.1,-0.1,0.1c-0.1,0.1,-0.1,0.1,-0.1,0.1l-0.4,1.7c0,0.1,0,0.1,0,0.1c0,0.1,0.1,0.1,0.1,0.1s0.1,0.1,0.1,0.1c0.1,0,0.1,0,0.2,0h5.1c0.1,0,0.1,0,0.2,0s0.1,-0.1,0.2,-0.1c0.1,-0.1,0.1,-0.1,0.1,-0.1c0.1,-0.1,0.1,-0.1,0.1,-0.1l0.3,-1.7c0,-0.1,0,-0.1,-0.1,-0.1C12.4,65.6,12.3,65.6,12.3,65.6L12.3,65.6zM75.9,65.6c-0.1,-0.1,-0.1,-0.1,-0.1,-0.1c-0.1,-0.1,-0.1,-0.1,-0.1,-0.1c-0.1,0,-0.1,0,-0.2,0h-5c-0.1,0,-0.1,0,-0.2,0c-0.1,0,-0.1,0.1,-0.1,0.1c-0.1,0.1,-0.1,0.1,-0.1,0.1c-0.1,0.1,-0.1,0.1,-0.1,0.1l0.2,1.7c0,0.1,0.1,0.1,0.1,0.1c0.1,0.1,0.1,0.1,0.1,0.1c0.1,0.1,0.1,0.1,0.1,0.1c0.1,0,0.1,0,0.2,0h5.1c0.1,0,0.1,0,0.2,0s0.1,-0.1,0.1,-0.1c0.1,-0.1,0.1,-0.1,0.1,-0.1c0.1,-0.1,0.1,-0.1,0.1,-0.1l-0.2,-1.7C75.9,65.6,75.9,65.6,75.9,65.6L75.9,65.6zM8.9,56.5c0.1,0,0.1,0.1,0.1,0.1s0.1,0,0.2,0h3.6c0.1,0,0.1,0,0.2,0s0.1,-0.1,0.1,-0.1c0.1,0,0.1,-0.1,0.1,-0.1c0.1,-0.1,0.1,-0.1,0.1,-0.1l0.2,-0.9c0,-0.1,0,-0.1,0,-0.1c0,-0.1,-0.1,-0.1,-0.1,-0.1c-0.1,0,-0.1,-0.1,-0.1,-0.1c-0.1,0,-0.1,0,-0.2,0H9.5c-0.1,0,-0.1,0,-0.2,0s-0.1,0.1,-0.1,0.1c-0.1,0,-0.1,0.1,-0.1,0.1c-0.1,0.1,-0.1,0.1,-0.1,0.1l-0.2,0.9c0,0.1,0,0.1,0,0.1C8.9,56.5,8.9,56.5,8.9,56.5L8.9,56.5zM13.8,56.5c0.1,0,0.1,0.1,0.1,0.1c0.1,0,0.1,0,0.2,0h3.6c0.1,0,0.1,0,0.2,0s0.1,-0.1,0.1,-0.1s0.1,-0.1,0.1,-0.1c0.1,-0.1,0.1,-0.1,0.1,-0.1l0.2,-0.9c0,-0.1,0,-0.1,-0.1,-0.1c0,-0.1,-0.1,-0.1,-0.1,-0.1c-0.1,0,-0.1,-0.1,-0.1,-0.1c-0.1,0,-0.1,0,-0.2,0H14.3c-0.1,0,-0.1,0,-0.2,0c-0.1,0,-0.1,0.1,-0.1,0.1s-0.1,0.1,-0.1,0.1c-0.1,0.1,-0.1,0.1,-0.1,0.1l-0.2,0.9c0,0.1,0,0.1,0,0.1C13.7,56.5,13.7,56.5,13.8,56.5L13.8,56.5zM18.6,56.5c0.1,0,0.1,0.1,0.1,0.1c0.1,0,0.1,0,0.2,0h3.6c0.1,0,0.1,0,0.2,0s0.1,-0.1,0.1,-0.1s0.1,-0.1,0.1,-0.1c0.1,-0.1,0.1,-0.1,0.1,-0.1l0.1,-0.9c0,-0.1,0,-0.1,-0.1,-0.1c0,-0.1,-0.1,-0.1,-0.1,-0.1c-0.1,0,-0.1,-0.1,-0.1,-0.1s-0.1,0,-0.2,0h-3.5c-0.1,0,-0.1,0,-0.2,0s-0.1,0.1,-0.1,0.1s-0.1,0.1,-0.1,0.1c-0.1,0.1,-0.1,0.1,-0.1,0.1l-0.2,0.9c0,0.1,0,0.1,0.1,0.1C18.5,56.5,18.6,56.5,18.6,56.5L18.6,56.5zM23.4,56.5c0.1,0,0.1,0.1,0.1,0.1s0.1,0,0.2,0h3.6c0.1,0,0.1,0,0.2,0c0.1,0,0.1,-0.1,0.1,-0.1c0.1,0,0.1,-0.1,0.1,-0.1c0.1,-0.1,0.1,-0.1,0.1,-0.1l0.1,-0.9c0,-0.1,0,-0.1,-0.1,-0.1c-0.1,-0.1,-0.1,-0.1,-0.1,-0.1c-0.1,0,-0.1,-0.1,-0.1,-0.1s-0.1,0,-0.2,0h-3.5c-0.1,0,-0.1,0,-0.2,0s-0.1,0.1,-0.1,0.1s-0.1,0.1,-0.1,0.1c-0.1,0.1,-0.1,0.1,-0.1,0.1l-0.1,0.9c0,0.1,0,0.1,0.1,0.1C23.3,56.5,23.4,56.5,23.4,56.5L23.4,56.5L23.4,56.5zM28.2,56.5c0.1,0,0.1,0.1,0.1,0.1s0.1,0,0.2,0h3.6c0.1,0,0.1,0,0.2,0c0.1,0,0.1,-0.1,0.1,-0.1s0.1,-0.1,0.1,-0.1c0.1,-0.1,0.1,-0.1,0.1,-0.1l0.1,-0.9c0,-0.1,0,-0.1,-0.1,-0.1c-0.1,-0.1,-0.1,-0.1,-0.1,-0.1c-0.1,0,-0.1,-0.1,-0.1,-0.1s-0.1,0,-0.2,0h-3.5c-0.1,0,-0.1,0,-0.2,0c-0.1,0,-0.1,0.1,-0.1,0.1c-0.1,0,-0.1,0.1,-0.1,0.1c-0.1,0.1,-0.1,0.1,-0.1,0.1l-0.1,0.9c0,0.1,0,0.1,0.1,0.1C28.2,56.5,28.2,56.5,28.2,56.5L28.2,56.5zM33.1,56.5c0.1,0,0.1,0.1,0.1,0.1s0.1,0,0.2,0h3.6c0.1,0,0.1,0,0.2,0c0.1,0,0.1,-0.1,0.1,-0.1c0.1,0,0.1,-0.1,0.1,-0.1c0.1,-0.1,0.1,-0.1,0.1,-0.1l0.1,-0.9c0,-0.1,0,-0.1,-0.1,-0.1c-0.1,-0.1,-0.1,-0.1,-0.1,-0.1c-0.1,0,-0.1,-0.1,-0.1,-0.1s-0.1,0,-0.2,0h-3.5c-0.1,0,-0.1,0,-0.2,0c-0.1,0,-0.1,0.1,-0.1,0.1c-0.1,0,-0.1,0.1,-0.1,0.1c-0.1,0.1,-0.1,0.1,-0.1,0.1l-0.1,0.9c0,0.1,0,0.1,0.1,0.1C33,56.5,33.1,56.5,33.1,56.5L33.1,56.5zM37.9,56.5c0.1,0,0.1,0.1,0.1,0.1s0.1,0,0.2,0H41.8c0.1,0,0.1,0,0.2,0c0.1,0,0.1,-0.1,0.1,-0.1c0.1,0,0.1,-0.1,0.1,-0.1c0.1,-0.1,0.1,-0.1,0.1,-0.1l0.1,-0.9c0,-0.1,0,-0.1,-0.1,-0.1c-0.1,-0.1,-0.1,-0.1,-0.1,-0.1c-0.1,0,-0.1,-0.1,-0.1,-0.1c-0.1,0,-0.1,0,-0.2,0h-3.5c-0.1,0,-0.1,0,-0.2,0c-0.1,0,-0.1,0.1,-0.1,0.1c-0.1,0,-0.1,0.1,-0.1,0.1c-0.1,0.1,-0.1,0.1,-0.1,0.1l-0.1,0.9c0,0.1,0,0.1,0.1,0.1C37.8,56.5,37.9,56.5,37.9,56.5L37.9,56.5zM42.7,56.5c0.1,0,0.1,0.1,0.1,0.1s0.1,0,0.2,0h3.6c0.1,0,0.1,0,0.2,0s0.1,-0.1,0.1,-0.1c0.1,0,0.1,-0.1,0.1,-0.1c0.1,-0.1,0.1,-0.1,0.1,-0.1v-0.9c0,-0.1,0,-0.1,-0.1,-0.1c-0.1,-0.1,-0.1,-0.1,-0.1,-0.1c-0.1,0,-0.1,-0.1,-0.1,-0.1s-0.1,0,-0.2,0h-3.5c-0.1,0,-0.1,0,-0.2,0s-0.1,0.1,-0.1,0.1c-0.1,0,-0.1,0.1,-0.1,0.1c-0.1,0.1,-0.1,0.1,-0.1,0.1l-0.1,0.9c0,0.1,0,0.1,0.1,0.1C42.7,56.5,42.7,56.5,42.7,56.5zM47.6,56.5c0.1,0,0.1,0.1,0.1,0.1s0.1,0,0.2,0h3.6c0.1,0,0.1,0,0.2,0s0.1,-0.1,0.1,-0.1c0.1,0,0.1,-0.1,0.1,-0.1c0.1,-0.1,0.1,-0.1,0.1,-0.1v-0.9c0,-0.1,0,-0.1,-0.1,-0.1c-0.1,-0.1,-0.1,-0.1,-0.1,-0.1c-0.1,0,-0.1,-0.1,-0.1,-0.1c-0.1,0,-0.1,0,-0.2,0h-3.5c-0.1,0,-0.1,0,-0.2,0s-0.1,0.1,-0.1,0.1s-0.1,0.1,-0.1,0.1c-0.1,0.1,-0.1,0.1,-0.1,0.1v0.9c0,0.1,0,0.1,0.1,0.1C47.5,56.5,47.6,56.5,47.6,56.5L47.6,56.5zM52.4,56.4c0.1,0.1,0.1,0.1,0.1,0.1s0.1,0.1,0.1,0.1s0.1,0,0.2,0h3.6c0.1,0,0.1,0,0.2,0s0.1,-0.1,0.1,-0.1c0.1,0,0.1,-0.1,0.1,-0.1c0.1,-0.1,0.1,-0.1,0.1,-0.1l-0.1,-0.9c0,-0.1,0,-0.1,-0.1,-0.1c-0.1,-0.1,-0.1,-0.1,-0.1,-0.1s-0.1,-0.1,-0.1,-0.1s-0.1,0,-0.2,0h-3.5c-0.1,0,-0.1,0,-0.2,0s-0.1,0.1,-0.1,0.1c-0.1,0,-0.1,0.1,-0.1,0.1c-0.1,0.1,-0.1,0.1,-0.1,0.1l0.1,0.9C52.3,56.4,52.3,56.4,52.4,56.4L52.4,56.4zM57.2,56.4c0.1,0.1,0.1,0.1,0.1,0.1c0.1,0,0.1,0.1,0.1,0.1s0.1,0,0.2,0h3.6c0.1,0,0.1,0,0.2,0s0.1,-0.1,0.1,-0.1l0.1,-0.1c0.1,-0.1,0.1,-0.1,0.1,-0.1l-0.1,-0.9c0,-0.1,0,-0.1,-0.1,-0.1c-0.1,-0.1,-0.1,-0.1,-0.1,-0.1s-0.1,-0.1,-0.1,-0.1c-0.1,0,-0.1,0,-0.2,0h-3.5c-0.1,0,-0.1,0,-0.2,0s-0.1,0.1,-0.1,0.1c-0.1,0,-0.1,0.1,-0.1,0.1c-0.1,0.1,-0.1,0.1,-0.1,0.1l0.1,0.9C57.1,56.4,57.1,56.4,57.2,56.4L57.2,56.4zM62,56.4c0.1,0.1,0.1,0.1,0.1,0.1c0.1,0,0.1,0.1,0.1,0.1c0.1,0,0.1,0,0.2,0h3.6c0.1,0,0.1,0,0.2,0s0.1,-0.1,0.1,-0.1c0.1,0,0.1,-0.1,0.1,-0.1c0.1,-0.1,0.1,-0.1,0.1,-0.1l-0.1,-0.9c0,-0.1,0,-0.1,-0.1,-0.1c-0.1,-0.1,-0.1,-0.1,-0.1,-0.1c-0.1,0,-0.1,-0.1,-0.1,-0.1s-0.1,0,-0.2,0H62.3c-0.1,0,-0.1,0,-0.2,0s-0.1,0.1,-0.1,0.1c-0.1,0,-0.1,0.1,-0.1,0.1c-0.1,0.1,-0.1,0.1,-0.1,0.1l0.1,0.9C61.9,56.4,61.9,56.4,62,56.4L62,56.4zM66.8,56.4c0.1,0.1,0.1,0.1,0.1,0.1s0.1,0.1,0.1,0.1s0.1,0,0.2,0h3.6c0.1,0,0.1,0,0.2,0s0.1,-0.1,0.1,-0.1l0.1,-0.1c0.1,-0.1,0.1,-0.1,0.1,-0.1l-0.1,-0.9c0,-0.1,-0.1,-0.1,-0.1,-0.1c-0.1,-0.1,-0.1,-0.1,-0.1,-0.1c-0.1,0,-0.1,-0.1,-0.1,-0.1s-0.1,0,-0.2,0h-3.5c-0.1,0,-0.1,0,-0.2,0s-0.1,0.1,-0.1,0.1l-0.1,0.1c-0.1,0.1,-0.1,0.1,-0.1,0.1l0.1,0.9C66.8,56.4,66.8,56.4,66.8,56.4L66.8,56.4zM71.7,56.4c0.1,0.1,0.1,0.1,0.1,0.1c0.1,0,0.1,0.1,0.1,0.1c0.1,0,0.1,0,0.2,0h3.6c0.1,0,0.1,0,0.2,0s0.1,-0.1,0.1,-0.1c0.1,0,0.1,-0.1,0.1,-0.1c0,-0.1,0.1,-0.1,0.1,-0.1l-0.2,-0.9c0,-0.1,-0.1,-0.1,-0.1,-0.1c-0.1,-0.1,-0.1,-0.1,-0.1,-0.1c-0.1,0,-0.1,-0.1,-0.1,-0.1c-0.1,0,-0.1,0,-0.2,0h-3.5c-0.1,0,-0.1,0,-0.2,0s-0.1,0.1,-0.1,0.1c-0.1,0,-0.1,0.1,-0.1,0.1c-0.1,0.1,-0.1,0.1,-0.1,0.1l0.1,0.9C71.6,56.4,71.7,56.4,71.7,56.4L71.7,56.4zM76.5,56.4c0.1,0.1,0.1,0.1,0.1,0.1c0.1,0,0.1,0.1,0.1,0.1s0.1,0,0.2,0H80.5c0.1,0,0.1,0,0.2,0s0.1,-0.1,0.1,-0.1c0.1,0,0.1,-0.1,0.1,-0.1c0,-0.1,0.1,-0.1,0.1,-0.1l-0.2,-0.9c0,-0.1,-0.1,-0.1,-0.1,-0.1c-0.1,-0.1,-0.1,-0.1,-0.1,-0.1c-0.1,0,-0.1,-0.1,-0.1,-0.1s-0.1,0,-0.2,0h-3.5c-0.1,0,-0.1,0,-0.2,0s-0.1,0.1,-0.1,0.1c-0.1,0,-0.1,0.1,-0.1,0.1c0,0.1,-0.1,0.1,-0.1,0.1l0.2,0.9C76.5,56.4,76.5,56.4,76.5,56.4L76.5,56.4zM81.3,56.4c0.1,0.1,0.1,0.1,0.1,0.1c0.1,0,0.1,0.1,0.1,0.1c0.1,0,0.1,0,0.2,0h3.6c0.1,0,0.1,0,0.2,0s0.1,-0.1,0.1,-0.1l0.1,-0.1c0,-0.1,0.1,-0.1,0,-0.1l-0.2,-0.9c0,-0.1,-0.1,-0.1,-0.1,-0.1c-0.1,-0.1,-0.1,-0.1,-0.1,-0.1c-0.1,0,-0.1,-0.1,-0.1,-0.1s-0.1,0,-0.2,0h-3.5c-0.1,0,-0.1,0,-0.2,0s-0.1,0.1,-0.1,0.1c-0.1,0,-0.1,0.1,-0.1,0.1c-0.1,0.1,-0.1,0.1,-0.1,0.1l0.2,0.9C81.3,56.4,81.3,56.4,81.3,56.4L81.3,56.4zM86.2,56.4c0.1,0.1,0.1,0.1,0.1,0.1c0.1,0,0.1,0.1,0.1,0.1s0.1,0,0.2,0h3.6c0.1,0,0.1,0,0.2,0c0.1,0,0.1,-0.1,0.1,-0.1c0.1,0,0.1,-0.1,0.1,-0.1c0,-0.1,0.1,-0.1,0,-0.1l-0.2,-0.9c0,-0.1,-0.1,-0.1,-0.1,-0.1c-0.1,-0.1,-0.1,-0.1,-0.1,-0.1c-0.1,0,-0.1,-0.1,-0.1,-0.1s-0.1,0,-0.2,0h-3.6c-0.1,0,-0.1,0,-0.2,0s-0.1,0.1,-0.1,0.1l-0.1,0.1c-0.1,0.1,-0.1,0.1,-0.1,0.1l0.2,0.9C86.1,56.4,86.2,56.4,86.2,56.4L86.2,56.4z"/>
    <polygon points="90.1,50.9 8.9,50.9 10,2.8 89.1,2.8"/>
    <path d="M60.5,71.2c0,-0.1,-0.1,-0.2,-0.2,-0.3c-0.1,-0.1,-0.2,-0.2,-0.3,-0.2c-0.2,-0.1,-0.3,-0.1,-0.5,-0.2c-0.2,-0.1,-0.4,-0.1,-0.6,-0.1H38.4c-0.2,0,-0.4,0.1,-0.6,0.1c-0.2,0.1,-0.4,0.1,-0.5,0.2c-0.2,0.1,-0.3,0.2,-0.4,0.2c-0.1,0.1,-0.2,0.2,-0.2,0.3l-0.3,3.5h24.2L60.5,71.2z"/>
    <path d="M58.9,70.5L58.9,70.5L58.9,70.5z"/>
    <path d="M60.6,74.8L60.6,74.8H36.4l-0.2,1.7c0,0.1,0.1,0.2,0.1,0.3c0.1,0.1,0.2,0.2,0.3,0.2c0.2,0.1,0.3,0.1,0.5,0.2s0.4,0.1,0.6,0.1h21.4c0.2,0,0.4,-0.1,0.6,-0.1c0.2,-0.1,0.4,-0.1,0.5,-0.2c0.2,-0.1,0.3,-0.2,0.3,-0.2c0.1,-0.1,0.1,-0.2,0.1,-0.3L60.6,74.8z"/>
</g>
<rect x="12.5" y="9.1" width="73.8" height="37.3" fill="none"/>
<path fill="none" d="M92.6,53.9c0,-0.1,-0.1,-0.1,-0.1,-0.2c-0.1,-0.1,-0.1,-0.1,-0.2,-0.1c-0.1,-0.1,-0.2,-0.1,-0.3,-0.1c-0.1,-0,-0.1,-0,-0.2,-0.1v-0.2h0.1c0.1,0,0.2,0,0.3,-0.1c0.1,0,0.2,-0.1,0.3,-0.2c0.1,-0.1,0.1,-0.2,0.2,-0.3c0.1,-0.2,0.1,-0.3,0.1,-0.4L91.3,0.9c-0.1,-0.1,-0.1,-0.2,-0.1,-0.3c0,-0.1,-0.1,-0.2,-0.2,-0.3c-0.1,-0.1,-0.2,-0.2,-0.3,-0.2c-0.1,0,-0.2,-0.1,-0.3,-0.1H8.6c-0.1,0,-0.3,0.1,-0.3,0.1c-0.1,0.1,-0.2,0.1,-0.3,0.2c-0.1,0.1,-0.1,0.2,-0.2,0.3c-0.1,0.1,-0.1,0.2,-0.1,0.3l-1.3,51.3c0,0.1,0,0.3,0.1,0.4c0,0.2,0.1,0.2,0.2,0.3c0.1,0.1,0.2,0.1,0.3,0.2c0.1,0,0.2,0.1,0.3,0.1v0.2c-0.1,0,-0.3,0,-0.4,0.1c-0.2,0.1,-0.2,0.1,-0.3,0.1c-0.1,0,-0.2,0.1,-0.2,0.1c-0.1,0.1,-0.1,0.1,-0.1,0.2L0,79.1c0,0.7,0.1,1.4,0.2,2.1c0,0.1,0,0.1,0.1,0.2c0,0,0.2,0.1,0.4,0.2c0.1,0,0.3,0.1,0.4,0.1l0,0h96.9v0c0.1,0,0.5,0,0.6,-0.1c0.1,-0.1,0.4,-0.3,0.4,-0.4c0.1,-0.7,0.1,-1.4,0.2,-2.1L92.6,53.9z"/>
<circle fill="none" cx="49.6" cy="0" r="0.1"/>
<circle fill="none" cx="70.4" cy="0" r="0.1"/>
<circle fill="none" cx="91.6" cy="14" r="0.1"/>
<circle fill="none" cx="92.3" cy="40.2" r="0.1"/>
<circle fill="none" cx="95.8" cy="66.5" r="0.1"/>
<circle fill="none" cx="74" cy="81.6" r="0.1"/>
<circle fill="none" cx="49.5" cy="81.6" r="0.1"/>
<circle fill="none" cx="25" cy="81.6" r="0.1"/>
<circle fill="none" cx="3.1" cy="66.5" r="0.1"/>
<circle fill="none" cx="6.8" cy="40.2" r="0.1"/>
<circle fill="none" cx="7.4" cy="14" r="0.1"/>
<circle fill="none" cx="28.8" cy="0" r="0.1"/>
</g></g><rect stroke="none" stroke-width="1" fill="#FFFFFF" x="0" y="0" width="40" height="20" transform="translate(132.2,30.1)"/><path stroke="#000000" fill="none" d="M92.3,40.2 C109.3,57.1 115.3,23.3 132.2 40.2"/><text font-family="OpenSansCondensedLight" font-size="14pt" fill="black" transform="translate(132.2,30.1)" text-anchor="middle"><tspan x="20" y="16.3">230</tspan></text><rect stroke-width="0" fill="none" width="73.8" height="37.3" transform="translate(12.5,9.1)"/><text font-family="OpenSansCondensedLight" font-size="14pt" fill="black" transform="translate(12.5,9.1)" text-anchor="middle"><tspan x="36.9" y="24.9"> </tspan></text><path stroke="#000000" fill="none" transform="translate(12.5,9.1)" d="M 0 0"/></g><g><path stroke="black" stroke-dasharray="none" d="M 663 383 578 383" fill="none"/><path fill="black" stroke="black" d="" transform="translate(663,383) scale(1,1) rotate(-180)"/><path fill="black" stroke="black" d="" transform="translate(578,383) scale(1,1) rotate(0)"/><g><g label-idx="0" cursor="move" transform="translate(620.5, 383)"><rect fill="white" rx="3" ry="3" x="0" y="0" width="0" height="0"/><text text-anchor="middle" font-size="14pt" font-family="OpenSansCondensedLight" y="0.8em" display="none" xml:space="preserve" transform="translate(0,0)"/></g></g></g></g><defs/></svg>